<?xml version="1.0" standalone="no"?>
<!DOCTYPE svg PUBLIC "-//W3C//DTD SVG 20010904//EN"
 "http://www.w3.org/TR/2001/REC-SVG-20010904/DTD/svg10.dtd">
<svg version="1.0" xmlns="http://www.w3.org/2000/svg"
 width="500.000000pt" height="454.000000pt" viewBox="0 0 500.000000 454.000000"
 preserveAspectRatio="xMidYMid meet">

<g transform="translate(0.000000,454.000000) scale(0.100000,-0.100000)"
fill="#000000" stroke="none">
<path d="M0 2270 l0 -2060 2500 0 2500 0 0 2060 0 2060 -2500 0 -2500 0 0
-2060z m533 1393 c-13 -2 -35 -2 -50 0 -16 2 -5 4 22 4 28 0 40 -2 28 -4z
m517 -4 c-110 -9 -350 -9 -420 1 -33 4 56 7 225 7 193 0 254 -2 195 -8z m223
4 c-7 -2 -21 -2 -30 0 -10 3 -4 5 12 5 17 0 24 -2 18 -5z m1422 -13 c-98 -10
-422 -11 -470 -1 -24 5 73 9 250 8 178 0 263 -3 220 -7z m198 3 c-7 -2 -19 -2
-25 0 -7 3 -2 5 12 5 14 0 19 -2 13 -5z m674 -19 c-3 -3 -12 -4 -19 -1 -8 3
-5 6 6 6 11 1 17 -2 13 -5z m1003 -5 c-174 -9 -734 -9 -840 1 -41 4 164 7 455
7 371 0 487 -3 385 -8z m-442 -212 c2 -10 -3 -17 -12 -17 -10 0 -16 9 -16 21
0 24 23 21 28 -4z m551 -189 c1 17 6 22 18 20 11 -2 17 -12 16 -26 0 -12 -1
-344 -2 -737 -1 -628 -3 -715 -16 -715 -13 0 -15 87 -17 718 l-3 717 -5 -645
-5 -645 -2 670 c0 369 3 659 7 645 8 -25 8 -25 9 -2z m-3619 -108 c41 -4 -34
-7 -200 -7 -146 0 -251 3 -235 7 38 10 349 10 435 0z m-743 -6 c-3 -3 -12 -4
-19 -1 -8 3 -5 6 6 6 11 1 17 -2 13 -5z m201 -1 c-10 -2 -28 -2 -40 0 -13 2
-5 4 17 4 22 1 32 -1 23 -4z m945 0 c-7 -2 -21 -2 -30 0 -10 3 -4 5 12 5 17 0
24 -2 18 -5z m1212 -3 c37 -4 -41 -7 -205 -7 -146 0 -249 3 -230 7 46 10 358
10 435 0z m-728 -6 c-3 -3 -12 -4 -19 -1 -8 3 -5 6 6 6 11 1 17 -2 13 -5z
m196 -1 c-13 -2 -33 -2 -45 0 -13 2 -3 4 22 4 25 0 35 -2 23 -4z m930 0 c-7
-2 -19 -2 -25 0 -7 3 -2 5 12 5 14 0 19 -2 13 -5z m1477 -13 c-18 -12 -598
-12 -655 -1 -24 5 99 9 315 10 232 0 350 -3 340 -9z m-3421 -526 c2 -2 -115
-3 -260 -2 -160 1 -232 4 -184 8 78 6 436 1 444 -6z m-616 -1 c-7 -2 -21 -2
-30 0 -10 3 -4 5 12 5 17 0 24 -2 18 -5z m764 1 c-3 -3 -12 -4 -19 -1 -8 3 -5
6 6 6 11 1 17 -2 13 -5z m180 0 c-3 -3 -12 -4 -19 -1 -8 3 -5 6 6 6 11 1 17
-2 13 -5z m1292 -10 c2 -2 -112 -3 -255 -2 -169 1 -230 4 -174 8 82 6 421 1
429 -6z m-601 -1 c-10 -2 -28 -2 -40 0 -13 2 -5 4 17 4 22 1 32 -1 23 -4z
m749 1 c-3 -3 -12 -4 -19 -1 -8 3 -5 6 6 6 11 1 17 -2 13 -5z m186 -1 c-7 -2
-19 -2 -25 0 -7 3 -2 5 12 5 14 0 19 -2 13 -5z m1487 -13 c10 -6 -145 -10
-445 -9 -266 0 -452 4 -440 9 28 12 866 12 885 0z m314 -286 c9 -8 16 -24 16
-34 0 -20 -25 -50 -41 -50 -27 0 -49 22 -49 50 0 44 44 65 74 34z m-3849 -224
c70 -5 13 -7 -190 -7 -159 0 -258 3 -220 7 96 9 290 9 410 0z m-522 -7 c-7 -2
-19 -2 -25 0 -7 3 -2 5 12 5 14 0 19 -2 13 -5z m760 0 c-7 -2 -19 -2 -25 0 -7
3 -2 5 12 5 14 0 19 -2 13 -5z m185 0 c-10 -2 -26 -2 -35 0 -10 3 -2 5 17 5
19 0 27 -2 18 -5z m1192 -3 c78 -5 38 -7 -160 -7 -146 0 -245 3 -220 7 59 9
248 9 380 0z m-523 -6 c-3 -3 -12 -4 -19 -1 -8 3 -5 6 6 6 11 1 17 -2 13 -5z
m771 -1 c-10 -2 -26 -2 -35 0 -10 3 -2 5 17 5 19 0 27 -2 18 -5z m179 1 c-3
-3 -12 -4 -19 -1 -8 3 -5 6 6 6 11 1 17 -2 13 -5z m1478 -13 c25 -6 -95 -9
-322 -10 -203 0 -363 3 -363 8 0 11 632 13 685 2z m-967 -8 c-10 -2 -26 -2
-35 0 -10 3 -2 5 17 5 19 0 27 -2 18 -5z m1079 -145 c-3 -7 -5 -2 -5 12 0 14
2 19 5 13 2 -7 2 -19 0 -25z m-3507 -378 c-18 -12 -428 -12 -485 -1 -25 6 59
9 230 10 178 0 265 -3 255 -9z m1590 0 c-34 -11 -500 -11 -525 0 -12 5 98 8
265 8 157 0 274 -4 260 -8z m1570 -8 l115 -7 -90 -5 c-49 -3 -178 -3 -285 0
l-195 5 130 5 c72 3 148 7 170 8 22 1 92 -1 155 -6z m-753 -8 c-3 -3 -12 -4
-19 -1 -8 3 -5 6 6 6 11 1 17 -2 13 -5z m186 -1 c-7 -2 -19 -2 -25 0 -7 3 -2
5 12 5 14 0 19 -2 13 -5z m745 0 c-10 -2 -26 -2 -35 0 -10 3 -2 5 17 5 19 0
27 -2 18 -5z m-3383 -533 c17 -4 -72 -8 -200 -9 -152 0 -225 3 -215 9 18 11
370 11 415 0z m1575 0 c14 -4 -81 -8 -215 -8 -132 0 -224 4 -205 8 47 10 389
10 420 0z m383 -7 c-7 -2 -19 -2 -25 0 -7 3 -2 5 12 5 14 0 19 -2 13 -5z m830
-10 c-7 -2 -21 -2 -30 0 -10 3 -4 5 12 5 17 0 24 -2 18 -5z m437 -4 c-59 -10
-334 -10 -385 0 -25 6 46 9 195 9 149 0 218 -3 190 -9z"/>
<path d="M4830 2220 c0 -5 12 -10 26 -10 14 0 23 4 19 10 -3 6 -15 10 -26 10
-10 0 -19 -4 -19 -10z"/>
</g>
</svg>
