<?xml version="1.0" standalone="no"?>
<!DOCTYPE svg PUBLIC "-//W3C//DTD SVG 20010904//EN"
 "http://www.w3.org/TR/2001/REC-SVG-20010904/DTD/svg10.dtd">
<svg version="1.0" xmlns="http://www.w3.org/2000/svg"
 width="565.000000pt" height="318.000000pt" viewBox="0 0 565.000000 318.000000"
 preserveAspectRatio="xMidYMid meet">

<g transform="translate(0.000000,318.000000) scale(0.100000,-0.100000)"
fill="#000000" stroke="none">
<path d="M5348 3153 c2 -16 10 -35 17 -43 16 -19 26 -108 13 -116 -10 -6 -2
-69 10 -89 4 -5 8 -19 8 -30 1 -11 6 -48 11 -82 5 -35 6 -63 1 -63 -4 0 -8 13
-8 29 0 52 -8 60 -43 50 -18 -5 -468 -97 -1002 -204 -920 -184 -1174 -236
-1900 -390 -170 -36 -404 -86 -520 -110 -115 -25 -271 -58 -345 -75 -74 -17
-207 -46 -295 -65 -88 -20 -243 -55 -345 -79 -102 -24 -189 -40 -193 -36 -5 4
-4 50 2 101 6 52 12 126 13 165 l3 72 75 16 c88 20 144 42 136 55 -4 5 10 7
32 4 21 -3 52 1 71 9 l35 14 -60 21 c-32 12 -89 33 -127 46 -37 14 -67 23 -67
21 0 -3 -14 3 -31 12 -28 14 -31 14 -26 1 10 -25 -3 -27 -57 -7 -28 11 -51 20
-52 20 -2 0 -16 -140 -18 -180 -2 -19 -3 -53 -4 -74 -1 -22 -5 -36 -9 -33 -6
7 -6 55 2 117 2 19 7 69 11 111 l7 75 31 -4 c41 -6 23 15 -20 22 -22 4 -72 -8
-165 -39 -74 -25 -143 -49 -154 -54 -11 -5 -39 -14 -62 -20 -24 -7 -44 -15
-44 -19 -5 -26 -8 -68 -18 -237 -6 -104 -14 -201 -17 -215 -4 -14 -8 -58 -10
-99 -2 -41 -7 -77 -11 -80 -12 -9 -16 -60 -6 -74 4 -7 5 -39 2 -72 -6 -60 -13
-58 -9 2 2 46 -9 80 -21 62 -12 -19 -11 -42 1 -34 6 3 10 -1 10 -10 0 -9 -4
-14 -9 -11 -5 4 -12 0 -14 -6 -3 -7 -6 -3 -6 10 -1 20 -4 21 -21 12 -15 -8
-26 -7 -45 6 -24 16 -25 16 -25 -10 0 -19 5 -26 20 -26 11 0 34 -9 52 -21 26
-16 28 -19 8 -12 -27 9 -122 8 -145 -1 -13 -5 -15 -60 -14 -368 1 -203 5 -350
9 -333 5 18 7 -7 4 -65 -2 -52 -7 -164 -10 -247 l-5 -153 53 0 c51 1 101 7
278 34 81 13 83 14 35 16 -27 2 -39 5 -27 7 31 6 27 20 -42 165 -60 125 -75
165 -57 153 17 -10 150 -290 140 -293 -23 -9 -5 -22 30 -22 22 0 41 -5 43 -12
4 -10 10 -10 31 -1 15 7 34 10 44 6 10 -4 14 -2 10 4 -4 6 3 9 17 8 17 -2 26
3 30 18 5 18 8 19 15 7 5 -8 7 -18 4 -23 -3 -4 33 -7 78 -6 101 2 649 -8 1104
-21 554 -16 2230 -33 2770 -28 281 3 575 2 655 -3 80 -5 186 -10 235 -13 50
-3 90 -6 90 -6 0 -1 26 -2 58 -3 l57 -2 0 662 0 662 -22 4 -23 4 23 2 22 1 0
195 0 195 -26 0 c-14 0 -23 4 -20 9 3 4 -13 5 -37 0 -23 -4 -45 -8 -49 -9 -5
0 -9 -12 -9 -27 -2 -24 -2 -25 -6 -5 -2 12 -9 22 -14 22 -5 0 -9 11 -9 25 0
23 4 25 40 25 31 0 40 4 41 18 0 10 3 12 6 5 2 -7 18 -13 34 -13 17 0 28 -4
25 -9 -3 -5 1 -11 9 -15 13 -5 15 62 15 559 l0 565 -154 0 -153 0 5 -27z m96
-615 c16 -131 15 -128 47 -128 21 0 27 -4 23 -14 -3 -9 -12 -12 -21 -9 -10 4
-14 2 -10 -4 4 -6 -3 -8 -18 -6 -21 5 -25 12 -30 62 -3 31 -8 77 -11 104 -4
28 -2 47 4 47 6 0 13 -24 16 -52z m96 -19 c0 -5 -4 -9 -10 -9 -5 0 -10 7 -10
16 0 8 5 12 10 9 6 -3 10 -10 10 -16z m-4900 -289 c0 -15 -7 -30 -15 -33 -19
-8 -24 2 -18 40 6 40 33 34 33 -7z m-43 -2 c-3 -7 -5 -2 -5 12 0 14 2 19 5 13
2 -7 2 -19 0 -25z m4873 -35 c0 -36 -2 -64 -4 -62 -9 11 -15 129 -6 129 6 0
10 -30 10 -67z m-4893 35 c-3 -8 -6 -5 -6 6 -1 11 2 17 5 13 3 -3 4 -12 1 -19z
m-31 -28 c9 0 12 -4 9 -10 -6 -10 -45 -15 -45 -6 0 16 14 38 18 28 2 -7 10
-12 18 -12z m-132 -11 c-17 -7 -17 -8 -1 -8 10 -1 15 -6 12 -11 -5 -8 -11 -7
-20 0 -18 15 -8 41 13 33 13 -6 13 -8 -4 -14z m86 -3 c0 -11 -19 -15 -25 -6
-3 5 1 10 9 10 9 0 16 -2 16 -4z m4735 -73 c3 -32 8 -68 11 -80 5 -26 3 -27
-126 -43 -47 -5 -188 -24 -314 -40 -126 -17 -230 -29 -233 -27 -2 3 -7 36 -10
75 l-6 71 34 5 c19 3 84 13 144 22 61 9 191 29 290 44 99 15 185 28 192 29 7
1 14 -21 18 -56z m-4595 7 c0 -5 -7 -10 -16 -10 -8 0 -12 5 -9 10 3 6 10 10
16 10 5 0 9 -4 9 -10z m26 -98 c-11 -10 -15 4 -8 28 l7 25 3 -23 c2 -13 1 -26
-2 -30z m3848 7 c7 -35 8 -119 2 -119 -2 0 -82 -11 -177 -25 -96 -13 -275 -38
-399 -55 -124 -17 -526 -73 -893 -125 -367 -52 -681 -95 -697 -95 -30 0 -30 0
-30 60 0 74 19 80 22 8 l2 -53 3 52 4 51 47 11 c26 6 124 22 217 36 94 14 211
32 260 40 50 8 196 30 325 50 349 52 752 113 860 130 52 8 145 22 205 31 61 9
130 20 155 24 82 14 87 13 94 -21z m-4105 -32 c-1 -17 -2 -18 -6 -4 -2 9 -9
17 -14 17 -6 0 -7 5 -4 10 10 16 25 1 24 -23z m86 13 c3 -5 1 -10 -4 -10 -6 0
-11 5 -11 10 0 6 2 10 4 10 3 0 8 -4 11 -10z m125 6 c0 -3 -4 -8 -10 -11 -5
-3 -10 -1 -10 4 0 6 5 11 10 11 6 0 10 -2 10 -4z m4967 -2 c-3 -3 -12 -4 -19
-1 -8 3 -5 6 6 6 11 1 17 -2 13 -5z m-4920 -51 c-3 -10 -5 -4 -5 12 0 17 2 24
5 18 2 -7 2 -21 0 -30z m4949 12 c-14 -11 -22 -12 -27 -4 -4 8 -8 7 -12 -2 -4
-10 -6 -9 -6 4 -1 13 7 17 32 17 30 -1 31 -1 13 -15z m-112 -110 c4 -67 3 -93
-3 -78 -14 32 -26 200 -13 188 6 -5 13 -55 16 -110z m-4884 80 c0 -8 -4 -15
-10 -15 -5 0 -10 7 -10 15 0 8 5 15 10 15 6 0 10 -7 10 -15z m30 -28 c0 -1 4
-17 9 -35 7 -24 7 -31 -2 -25 -7 4 -24 6 -39 4 -50 -5 -26 49 25 58 4 0 7 0 7
-2z m7 -139 c-3 -7 -5 -2 -5 12 0 14 2 19 5 13 2 -7 2 -19 0 -25z m-10 -155
c-2 -27 -3 -5 -3 47 0 52 1 74 3 48 2 -27 2 -69 0 -95z m1643 37 c0 -33 -2
-60 -4 -60 -2 0 -41 -6 -87 -14 -46 -8 -201 -31 -344 -50 -143 -20 -300 -43
-350 -50 -156 -25 -205 -29 -205 -17 0 6 -8 12 -17 12 -16 1 -16 2 1 6 14 4
17 11 12 34 -5 27 -4 28 27 22 18 -3 34 -8 36 -10 3 -2 15 7 28 19 18 17 23
18 23 6 0 -11 6 -14 20 -11 20 5 28 23 10 23 -5 0 -10 4 -10 8 0 5 51 17 113
26 61 10 146 24 187 31 41 8 138 23 215 35 77 11 181 26 230 34 50 7 96 14
103 15 8 1 12 -17 12 -59z m3251 -110 c1 -36 6 -80 10 -97 4 -18 3 -33 -1 -33
-10 0 -30 113 -30 170 0 70 19 34 21 -40z m-4310 -20 c5 0 9 -7 9 -15 0 -8 -4
-15 -10 -15 -5 0 -10 5 -10 10 0 6 -7 10 -15 10 -8 0 -15 -5 -15 -12 0 -6 -3
-9 -6 -5 -12 12 6 39 22 33 9 -3 20 -6 25 -6z m-594 -120 c-2 -67 -7 -124 -11
-127 -3 -4 -7 5 -8 18 0 13 -2 29 -3 34 -2 6 -3 14 -4 18 0 4 -10 3 -21 -3
-33 -17 -23 3 11 22 29 17 30 21 29 75 -3 70 -2 83 6 83 3 0 4 -54 1 -120z
m-57 106 c0 -3 -4 -8 -10 -11 -5 -3 -10 -1 -10 4 0 6 5 11 10 11 6 0 10 -2 10
-4z m-43 -38 c-3 -8 -6 -5 -6 6 -1 11 2 17 5 13 3 -3 4 -12 1 -19z m728 -9
c10 -15 6 -16 -49 -24 -39 -6 -48 -5 -44 6 3 8 12 13 21 11 8 -1 18 2 22 8 8
13 42 13 50 -1z m-135 -31 c0 -11 -28 -10 -35 1 -3 6 4 9 15 8 11 -1 20 -5 20
-9z m4480 -9 c0 -5 -4 -9 -10 -9 -5 0 -10 7 -10 16 0 8 5 12 10 9 6 -3 10 -10
10 -16z m-5553 -176 c-3 -10 -5 -2 -5 17 0 19 2 27 5 18 2 -10 2 -26 0 -35z
m5517 -94 c4 -73 3 -82 -3 -39 -16 104 -21 166 -11 149 5 -8 11 -58 14 -110z
m-5034 86 c0 -8 5 -15 12 -15 6 0 9 -3 6 -6 -10 -9 -49 16 -43 27 9 14 25 11
25 -6z m87 -32 c-3 -10 -5 -2 -5 17 0 19 2 27 5 18 2 -10 2 -26 0 -35z m-580
-15 c-3 -7 -5 -2 -5 12 0 14 2 19 5 13 2 -7 2 -19 0 -25z m-10 -85 c-3 -10 -5
-2 -5 17 0 19 2 27 5 18 2 -10 2 -26 0 -35z m591 -23 c0 -9 -3 -7 -8 5 -5 11
-8 29 -8 40 0 16 2 15 8 -5 4 -14 8 -32 8 -40z m4980 -35 c-3 -3 -9 2 -12 12
-6 14 -5 15 5 6 7 -7 10 -15 7 -18z m-4980 -20 c0 -14 -4 -25 -9 -25 -5 0 -10
-21 -10 -47 -1 -27 -4 -37 -6 -24 -7 34 7 132 16 126 5 -2 9 -16 9 -30z m-43
-5 c-3 -5 -10 -10 -16 -10 -5 0 -9 5 -9 10 0 6 7 10 16 10 8 0 12 -4 9 -10z
m-38 -6 c-3 -3 -12 -4 -19 -1 -8 3 -5 6 6 6 11 1 17 -2 13 -5z m5083 -24 c0
-5 -7 -10 -16 -10 -14 0 -15 -13 -10 -102 4 -57 3 -116 -2 -133 -8 -26 -10
-20 -15 45 -12 134 -11 176 4 193 16 18 39 22 39 7z m-5598 -69 c2 -17 1 -28
-4 -25 -8 5 -12 54 -4 54 2 0 6 -13 8 -29z m188 19 c0 -5 -4 -10 -10 -10 -5 0
-10 5 -10 10 0 6 5 10 10 10 6 0 10 -4 10 -10z m40 -25 c-7 -8 -16 -15 -21
-15 -5 0 -9 7 -9 15 0 9 9 15 21 15 18 0 19 -2 9 -15z m94 -307 c83 -191 96
-228 78 -228 -9 0 -27 38 -81 165 -16 39 -47 111 -69 162 -26 60 -36 93 -29
96 7 2 13 4 13 3 1 0 41 -90 88 -198z m253 120 l1 -63 -8 50 c-4 28 -9 55 -10
60 -4 17 0 26 8 21 4 -2 8 -33 9 -68z m-6 -145 c-4 -44 -5 -46 -11 -17 -4 17
-10 36 -13 42 -6 9 4 18 23 21 3 1 3 -20 1 -46z m5029 -5 c0 -18 3 -67 6 -108
4 -50 3 -72 -4 -65 -14 14 -26 205 -13 205 6 0 11 -15 11 -32z m-5020 -135 c0
-19 -3 -24 -10 -17 -6 6 -8 18 -4 27 9 24 14 21 14 -10z m-53 -49 c-3 -3 -12
-4 -19 -1 -8 3 -5 6 6 6 11 1 17 -2 13 -5z m4931 -81 c-10 -2 -26 -2 -35 0
-10 3 -2 5 17 5 19 0 27 -2 18 -5z"/>
<path d="M1426 1520 c-19 -6 -19 -7 -1 -13 20 -8 29 -4 24 11 -2 5 -13 6 -23
2z"/>
<path d="M1033 3153 c9 -2 25 -2 35 0 9 3 1 5 -18 5 -19 0 -27 -2 -17 -5z"/>
<path d="M1198 2983 c7 -3 16 -2 19 1 4 3 -2 6 -13 5 -11 0 -14 -3 -6 -6z"/>
<path d="M4018 193 c6 -2 18 -2 25 0 6 3 1 5 -13 5 -14 0 -19 -2 -12 -5z"/>
</g>
</svg>
