<?xml version="1.0" standalone="no"?>
<!DOCTYPE svg PUBLIC "-//W3C//DTD SVG 20010904//EN"
 "http://www.w3.org/TR/2001/REC-SVG-20010904/DTD/svg10.dtd">
<svg version="1.0" xmlns="http://www.w3.org/2000/svg"
 width="500.000000pt" height="500.000000pt" viewBox="0 0 500.000000 500.000000"
 preserveAspectRatio="xMidYMid meet">

<g transform="translate(0.000000,500.000000) scale(0.100000,-0.100000)"
fill="#000000" stroke="none">
<path d="M3132 2508 c-18 -18 -14 -30 6 -19 22 12 47 -2 39 -22 -4 -10 -14
-13 -33 -9 -19 3 -25 1 -20 -7 12 -19 54 -13 66 10 9 16 8 25 -6 40 -20 22
-35 24 -52 7z"/>
<path d="M3149 2333 c0 -4 -2 -17 -3 -29 -1 -12 3 -21 11 -21 15 0 18 43 3 52
-5 3 -10 3 -11 -2z"/>
</g>
</svg>
