<?xml version="1.0" standalone="no"?>
<!DOCTYPE svg PUBLIC "-//W3C//DTD SVG 20010904//EN"
 "http://www.w3.org/TR/2001/REC-SVG-20010904/DTD/svg10.dtd">
<svg version="1.0" xmlns="http://www.w3.org/2000/svg"
 width="648.000000pt" height="364.000000pt" viewBox="0 0 648.000000 364.000000"
 preserveAspectRatio="xMidYMid meet">

<g transform="translate(0.000000,364.000000) scale(0.100000,-0.100000)"
fill="#000000" stroke="none">
<path d="M5418 3123 c7 -3 16 -2 19 1 4 3 -2 6 -13 5 -11 0 -14 -3 -6 -6z"/>
<path d="M5100 3070 c0 -13 11 -13 30 0 12 8 11 10 -7 10 -13 0 -23 -4 -23
-10z"/>
<path d="M5907 3068 c-6 -3 -43 -7 -81 -7 -39 0 -130 -10 -201 -22 -72 -11
-162 -22 -201 -22 -40 -1 -70 -5 -68 -9 3 -4 -12 -10 -33 -14 -21 -4 -45 -12
-53 -18 -13 -10 -13 -9 -1 7 7 9 22 17 32 17 26 0 24 25 -3 37 -34 14 -172 0
-184 -19 -10 -15 23 -32 76 -39 32 -5 24 -6 -26 -4 -50 2 -78 -1 -92 -11 -12
-8 -23 -10 -26 -5 -4 5 -23 5 -48 -1 -24 -5 -77 -10 -118 -11 -41 -1 -79 -7
-85 -13 -14 -16 -63 -26 -70 -14 -6 10 -65 2 -80 -11 -13 -12 -28 -11 -20 1 9
14 -8 13 -23 -2 -9 -9 -15 -9 -24 0 -7 7 -19 12 -27 12 -11 0 -11 -3 4 -13 16
-13 15 -14 -14 -9 -18 2 -43 -1 -55 -7 -12 -7 -26 -11 -32 -10 -5 2 -33 -3
-62 -9 -30 -7 -57 -10 -61 -7 -5 2 -16 -2 -26 -9 -14 -10 -25 -10 -51 -1 -19
6 -37 14 -40 18 -12 11 -66 8 -59 -3 4 -6 10 -8 14 -6 4 3 13 1 21 -4 13 -8
13 -12 -2 -26 -14 -14 -20 -15 -47 -3 -24 11 -28 16 -18 28 10 12 9 14 -6 8
-10 -4 -25 -7 -33 -7 -25 0 -15 -20 17 -33 30 -12 29 -12 -32 -13 -35 0 -80
-6 -100 -13 -20 -6 -45 -13 -55 -15 -10 -3 -35 -11 -54 -19 -19 -8 -78 -20
-130 -27 -52 -7 -102 -13 -110 -15 -82 -15 -106 -15 -148 -4 -41 10 -62 9
-138 -6 -49 -10 -101 -18 -116 -18 -21 0 -25 -3 -17 -13 5 -6 6 -14 2 -16 -4
-3 -2 -3 6 -1 7 2 19 -1 26 -7 7 -5 27 -8 46 -6 19 2 44 4 57 5 13 0 21 5 17
10 -3 5 -31 7 -63 4 -64 -6 -70 2 -7 10 22 3 61 12 87 21 29 9 50 11 53 5 4
-5 3 -9 -1 -9 -4 0 1 -6 11 -14 32 -23 12 -46 -42 -46 -26 -1 -68 -5 -93 -11
-25 -5 -62 -12 -82 -15 -32 -6 -35 -8 -23 -21 8 -7 27 -13 42 -11 22 2 28 -1
28 -17 0 -15 6 -19 24 -17 14 1 32 9 41 17 9 8 24 15 34 15 13 0 15 -4 6 -19
-14 -27 1 -33 52 -21 24 5 51 10 61 10 17 0 17 -1 3 -16 -29 -28 -18 -35 52
-33 38 1 74 -1 80 -5 17 -10 15 -26 -3 -20 -8 4 -15 1 -15 -4 0 -18 20 -24 35
-12 10 8 31 10 67 4 29 -4 56 -7 61 -6 4 1 7 -1 7 -5 0 -5 -21 -8 -47 -9 -27
0 -71 -4 -100 -8 -49 -6 -52 -5 -55 16 -2 17 -11 24 -30 26 -16 2 -28 -1 -28
-7 0 -6 10 -11 23 -11 20 -1 19 -2 -7 -13 -16 -7 -44 -11 -62 -9 -33 4 -40 14
-34 51 1 9 -4 12 -15 7 -9 -3 -20 -6 -24 -6 -4 0 -7 -10 -7 -22 1 -20 -5 -23
-41 -26 -34 -3 -41 -7 -40 -23 1 -10 7 -19 14 -19 23 0 28 -32 8 -46 -16 -12
-16 -14 -3 -14 9 0 23 6 30 13 7 6 37 13 66 14 49 2 52 1 52 -22 0 -25 -20
-33 -97 -38 -18 -1 -33 -5 -33 -9 0 -5 -14 -8 -30 -8 -18 0 -33 -6 -36 -15 -5
-11 -24 -15 -78 -16 l-71 -2 65 -10 65 -10 -30 -14 c-23 -11 -24 -13 -7 -9 29
6 52 -2 52 -18 0 -12 84 -13 183 -2 47 5 57 4 57 -9 0 -11 -11 -15 -37 -16
-42 0 -128 -16 -100 -18 9 0 17 -6 17 -12 0 -6 9 -8 23 -4 15 4 18 3 8 -3 -11
-8 -11 -10 0 -15 20 -7 -41 -15 -153 -21 -61 -3 -98 -2 -98 4 0 6 9 11 20 11
33 2 38 4 46 12 5 4 -33 5 -84 1 -62 -5 -92 -3 -92 4 0 6 6 13 13 16 6 3 2 3
-10 0 -17 -4 -23 -1 -23 10 0 9 8 16 20 16 10 0 24 9 30 20 9 17 8 19 -7 17
-10 -1 -19 3 -21 8 -1 6 7 11 19 11 11 1 26 7 32 13 9 10 3 12 -28 9 -37 -3
-40 -6 -43 -34 -3 -28 -8 -32 -40 -38 -62 -10 -92 -7 -92 9 0 11 -20 15 -95
17 -73 2 -93 6 -86 16 9 15 20 17 125 27 56 5 76 4 72 -4 -4 -6 -19 -11 -34
-12 -26 0 -27 0 -4 -9 33 -14 147 10 147 30 0 11 12 15 40 17 22 0 54 8 70 17
17 9 39 16 50 16 11 0 26 9 33 20 10 16 10 20 -1 20 -7 0 -18 -5 -25 -12 -9
-9 -12 -4 -12 25 0 20 5 37 11 37 5 0 7 5 4 10 -4 7 -11 7 -18 2 -30 -23 -255
-49 -285 -33 -14 7 -23 8 -27 1 -3 -6 -18 -7 -33 -4 -52 11 -54 12 -42 34 9
17 8 20 -10 20 -13 0 -20 -7 -20 -19 0 -25 -15 -34 -50 -33 -23 0 -27 -3 -23
-19 4 -15 13 -19 34 -17 15 2 28 -1 28 -7 0 -5 -6 -9 -12 -8 -7 2 -18 -6 -25
-17 -7 -12 -8 -20 -2 -20 5 0 10 5 10 10 0 6 13 10 30 10 27 0 29 2 24 28 -5
23 -2 28 15 28 20 0 25 -7 22 -32 -2 -15 27 -39 36 -30 4 3 1 12 -5 18 -18 18
-15 28 8 28 17 0 19 -4 14 -27 l-7 -26 58 7 c70 8 86 16 55 28 -35 13 -14 26
53 34 47 6 57 4 57 -8 0 -17 -54 -32 -74 -21 -6 3 -3 -3 6 -14 25 -27 23 -33
-12 -33 -16 0 -30 -4 -30 -10 0 -5 9 -10 21 -10 11 0 17 -4 14 -10 -10 -16
-45 -12 -45 6 0 10 -6 14 -14 11 -7 -3 -17 -2 -22 3 -5 4 -31 4 -59 -1 -27 -5
-71 -12 -97 -15 -27 -4 -48 -11 -48 -17 0 -5 -12 -7 -26 -4 -16 3 -28 0 -31
-9 -3 -9 -22 -14 -52 -15 -42 -1 -44 -1 -17 -9 16 -5 33 -7 37 -4 4 2 10 0 14
-6 3 -5 -2 -10 -12 -11 -12 -1 -10 -3 7 -8 14 -4 24 -13 22 -20 -2 -10 19 -12
98 -6 67 5 100 4 100 -3 0 -6 -25 -14 -55 -17 -67 -9 -70 -31 -4 -27 l44 2
-34 -12 c-48 -18 -54 -41 -10 -34 19 4 55 8 80 10 100 9 139 18 139 33 0 25
45 11 48 -14 3 -21 -1 -23 -37 -23 -39 0 -53 -11 -31 -25 6 -4 8 -11 5 -16 -4
-5 21 -9 59 -9 l65 0 -6 35 -6 35 56 0 c42 0 56 -4 61 -17 7 -17 -8 -32 -34
-34 -8 0 -4 -5 10 -9 23 -7 22 -8 -10 -10 -19 -1 -44 -3 -55 -5 -11 -3 -59 -7
-107 -11 -82 -6 -88 -8 -88 -29 0 -20 -5 -21 -65 -20 -35 1 -62 -2 -59 -7 7
-11 110 -10 174 2 37 7 57 7 66 -1 17 -14 70 -8 66 9 -1 8 13 12 48 12 39 0
50 3 50 16 0 9 9 18 19 21 11 3 18 10 15 16 -8 22 12 37 59 43 46 7 47 6 58
-23 9 -27 16 -31 60 -37 27 -4 54 -4 59 -1 6 3 10 0 10 -8 0 -9 -10 -13 -30
-12 -16 1 -27 -2 -24 -7 4 -6 -21 -8 -57 -6 -62 3 -64 2 -67 -22 l-3 -25 78 4
c43 3 68 6 55 9 -35 6 -15 22 29 22 26 0 39 -4 39 -13 0 -8 10 -19 23 -25 l22
-11 -25 -1 c-16 -1 -20 -4 -10 -7 18 -7 30 -23 30 -40 0 -8 -25 -13 -75 -15
-41 -2 -74 -6 -73 -9 2 -3 -3 -13 -11 -22 -17 -21 -24 -20 202 -17 114 1 172
-2 181 -9 10 -8 16 -9 21 -1 10 17 35 11 35 -8 0 -15 -7 -18 -37 -16 -47 2
-57 -4 -42 -22 10 -12 3 -14 -40 -14 -28 0 -51 -4 -51 -9 0 -6 37 -9 85 -8 82
2 85 1 85 -20 0 -13 -5 -23 -12 -23 -6 0 -3 -6 8 -14 21 -16 15 -21 -36 -29
-20 -4 -19 -5 8 -6 30 -1 32 -3 32 -41 0 -30 -3 -38 -14 -34 -8 3 -12 12 -9
20 4 11 -6 14 -46 14 -44 0 -51 3 -51 19 0 14 8 21 28 24 l27 4 -27 2 c-24 1
-28 5 -28 30 0 33 -17 43 -60 34 -31 -6 -43 10 -15 21 8 3 12 12 9 21 -4 10 0
15 12 15 16 0 17 2 4 10 -23 15 -30 12 -30 -10 0 -19 -14 -25 -47 -21 -20 3
-15 -17 5 -22 13 -4 11 -5 -5 -6 -13 0 -23 -5 -23 -11 0 -5 10 -9 23 -7 17 2
23 -4 25 -25 4 -31 1 -32 -93 -27 -27 1 -65 2 -84 3 -19 1 -36 7 -38 14 -5 14
11 15 54 3 28 -8 32 -7 35 12 2 16 10 22 28 23 40 2 47 6 22 13 -32 8 -113 1
-106 -10 10 -17 -207 -13 -219 4 -6 8 -7 5 -3 -6 4 -13 0 -20 -14 -24 -31 -8
-24 -21 13 -25 20 -2 32 -8 32 -18 0 -10 12 -16 33 -18 20 -2 32 -9 32 -18 0
-8 5 -14 10 -14 6 0 8 11 4 25 -5 19 -2 25 11 25 11 0 15 -7 13 -22 -3 -22 0
-23 64 -23 37 -1 70 -4 74 -8 4 -4 0 -7 -8 -7 -13 0 -28 -19 -28 -36 0 -2 17
-4 38 -4 25 0 33 3 23 9 -28 18 -4 41 43 41 44 0 69 -13 44 -23 -7 -3 -3 -6
10 -6 12 -1 22 -6 22 -11 0 -6 15 -8 39 -4 33 5 41 3 51 -15 6 -12 8 -26 5
-31 -3 -6 1 -10 9 -10 12 0 14 5 6 26 -6 14 -10 27 -10 30 0 6 106 5 112 -1
13 -13 -6 -54 -26 -58 -20 -4 -20 -4 2 -6 12 0 22 -8 22 -16 0 -22 -285 -22
-293 -1 -4 10 -16 13 -39 11 -60 -8 -105 18 -99 58 2 16 -37 6 -42 -12 -5 -21
-51 -33 -66 -18 -6 6 -11 9 -12 7 0 -3 -2 -12 -4 -22 -5 -27 80 -41 96 -16 9
14 53 6 60 -12 4 -8 2 -21 -3 -27 -7 -9 -7 -13 1 -13 6 0 11 -10 11 -22 1 -21
2 -21 11 -5 7 13 7 22 0 31 -14 17 -5 25 20 19 12 -3 19 -14 19 -28 0 -28 25
-36 91 -28 41 5 46 8 32 18 -38 28 13 43 100 29 56 -10 49 -34 -10 -35 -27 0
-42 -3 -35 -6 6 -2 12 -13 12 -24 0 -15 -7 -19 -32 -20 -31 0 -32 -1 -9 -10
15 -6 21 -15 17 -24 -3 -9 0 -15 10 -15 11 0 13 6 9 21 -7 21 -5 21 64 14 52
-5 71 -4 71 5 0 6 6 10 13 8 8 -3 12 -31 13 -89 1 -105 0 -110 -37 -102 -39 8
-37 -4 4 -16 l32 -9 -38 -1 c-48 -1 -40 -21 9 -21 34 0 34 0 32 -45 0 -24 -4
-43 -7 -40 -13 8 -241 14 -241 6 0 -7 175 -24 233 -23 24 1 21 -14 -5 -23 -62
-21 -65 -23 -40 -24 28 -1 38 2 34 11 -1 5 4 8 12 8 10 0 13 -21 11 -98 -3
-155 0 -144 -40 -136 -19 3 -35 2 -35 -3 0 -5 14 -10 32 -11 18 -2 34 -5 37
-9 4 -3 -24 -3 -61 0 -87 6 -89 -9 -3 -18 l65 -7 0 -70 c0 -55 -3 -69 -14 -65
-7 3 -34 8 -59 12 -49 8 -53 14 -52 78 0 40 0 40 -67 50 -26 4 -28 2 -28 -29
0 -32 -2 -33 -42 -36 -36 -2 -44 -7 -46 -26 -3 -20 -1 -21 23 -12 36 14 45 13
39 -5 -5 -12 3 -15 35 -15 23 0 41 -4 41 -10 0 -5 -6 -10 -12 -11 -21 -2 35
-17 62 -17 21 0 20 1 -7 9 -18 5 -33 14 -33 19 0 13 17 13 25 1 3 -5 34 -13
70 -16 36 -4 65 -10 65 -14 0 -4 -19 -5 -42 -3 -24 3 -41 2 -38 -1 7 -6 228
-50 259 -51 25 -1 43 -26 19 -26 -15 0 -98 -38 -98 -45 0 -4 51 16 107 42 22
10 47 13 75 9 24 -3 59 -8 78 -10 19 -3 69 -10 110 -17 41 -6 93 -13 115 -14
22 -2 67 -11 100 -19 32 -9 73 -16 90 -16 17 0 53 -7 79 -16 26 -9 58 -14 71
-12 15 3 26 0 30 -10 4 -11 16 -13 45 -9 22 3 43 1 46 -4 3 -5 9 -7 14 -4 5 3
18 2 27 -3 10 -5 45 -12 78 -16 33 -3 98 -13 145 -22 47 -9 92 -16 100 -17 8
-1 17 -5 20 -9 3 -3 39 -9 80 -13 41 -3 83 -9 94 -12 10 -3 35 -7 55 -9 58 -6
76 -10 87 -17 12 -7 169 -18 304 -20 52 -1 98 -6 102 -11 4 -6 13 -4 22 3 15
13 21 8 17 -13 -1 -4 11 -5 26 -1 15 5 37 8 49 8 20 -1 21 2 16 147 -3 107 -1
149 7 154 9 6 9 12 -1 23 -10 13 -12 129 -9 587 7 1070 19 1961 26 1987 l7 27
-127 -2 c-70 0 -132 -4 -138 -8z m-647 -58 c0 -16 -27 -23 -65 -16 -52 10 -42
26 15 26 28 0 50 -5 50 -10z m820 -286 c0 -246 -2 -284 -15 -284 -13 0 -15 37
-15 274 0 151 3 281 6 290 18 47 24 -23 24 -280z m-104 206 c0 -14 -9 -21 -31
-25 -77 -12 -75 -13 -75 19 0 16 19 23 70 25 29 1 36 -3 36 -19z m-208 -45
c-3 -3 -326 -47 -708 -95 -85 -11 -167 -23 -182 -26 -23 -5 -28 -2 -28 14 0
21 8 23 295 62 83 12 256 35 385 53 225 31 235 32 238 14 2 -10 2 -20 0 -22z
m-1518 -55 c-8 -5 -22 -9 -30 -9 -10 0 -8 3 5 9 27 12 43 12 25 0z m1730 -4
c0 -14 -42 -26 -92 -26 -43 0 -30 24 18 31 65 10 74 10 74 -5z m-212 -28 c-3
-9 -81 -22 -234 -41 -126 -15 -331 -40 -456 -55 -171 -21 -228 -25 -228 -16 0
16 10 18 325 54 149 17 326 40 395 50 156 22 203 24 198 8z m-1040 -35 c-3
-15 -36 -22 -213 -45 -196 -25 -289 -32 -185 -13 43 8 44 9 15 15 -21 4 27 14
150 32 228 32 237 33 233 11z m1252 -32 c0 -12 -36 -21 -82 -21 -39 0 -52 15
-20 23 31 8 102 7 102 -2z m-1677 -18 c-7 -2 -21 -2 -30 0 -10 3 -4 5 12 5 17
0 24 -2 18 -5z m1467 -8 c0 -9 -9 -15 -22 -15 -13 0 -217 -21 -455 -47 -376
-41 -461 -47 -442 -29 4 4 842 102 892 105 18 1 27 -4 27 -14z m-2260 -15 c0
-5 -12 -10 -27 -9 l-28 1 25 8 c14 4 26 8 28 9 1 1 2 -3 2 -9z m767 4 c-3 -3
-12 -4 -19 -1 -8 3 -5 6 6 6 11 1 17 -2 13 -5z m-500 -10 c-3 -3 -12 -4 -19
-1 -8 3 -5 6 6 6 11 1 17 -2 13 -5z m950 -20 c-4 -4 -143 -21 -409 -48 -27 -3
-48 -2 -48 2 0 11 263 44 284 36 10 -4 21 -3 25 3 8 12 145 31 150 20 1 -5 1
-11 -2 -13z m-1097 2 c0 -8 -6 -14 -12 -13 -7 0 -24 -1 -37 -1 -27 -2 -19 -17
14 -25 11 -3 -2 -5 -29 -4 -38 2 -50 6 -52 20 -2 13 5 17 29 18 18 0 41 4 52
9 29 12 35 12 35 -4z m230 4 c0 -5 -10 -10 -22 -10 -13 0 -33 -3 -45 -6 -13
-4 -23 -2 -23 4 0 10 24 16 73 21 9 0 17 -3 17 -9z m-363 -16 c-3 -3 -12 -4
-19 -1 -8 3 -5 6 6 6 11 1 17 -2 13 -5z m2481 -62 c2 -48 0 -62 -11 -62 -8 0
-35 -3 -61 -6 l-47 -7 3 64 3 64 45 6 c25 3 50 5 55 4 6 -1 11 -29 13 -63z
m-2118 33 c0 -8 -4 -15 -10 -15 -5 0 -7 7 -4 15 4 8 8 15 10 15 2 0 4 -7 4
-15z m1910 -50 c0 -55 -3 -65 -17 -65 -10 0 -61 -5 -113 -10 -52 -5 -230 -20
-395 -34 -165 -14 -321 -28 -347 -31 l-48 -6 0 56 c0 37 4 55 13 56 13 1 887
96 900 98 4 0 7 -28 7 -64z m-2326 35 c-22 -9 -29 -6 -20 9 4 6 14 7 23 4 15
-6 14 -7 -3 -13z m330 12 c-6 -4 -14 -14 -17 -22 -4 -10 -6 -8 -6 8 -1 15 5
22 17 22 10 0 13 -3 6 -8z m-444 -14 c0 -7 -11 -18 -24 -24 -21 -10 -25 -9
-29 7 -5 17 -1 19 46 28 4 0 7 -5 7 -11z m483 -5 c-7 -2 -21 -2 -30 0 -10 3
-4 5 12 5 17 0 24 -2 18 -5z m287 -13 c0 -12 -27 -12 -55 0 -16 7 -13 9 18 9
20 1 37 -3 37 -9z m630 0 c0 -5 -3 -10 -7 -10 -5 0 -66 -7 -138 -15 -153 -17
-165 -18 -165 -7 0 5 57 16 128 24 160 19 182 20 182 8z m-1121 -41 c-8 -5
-30 -8 -49 -8 l-35 1 40 13 c41 13 68 9 44 -6z m251 -19 c0 -11 -6 -20 -12
-20 -7 0 -23 -3 -35 -6 -18 -5 -23 -2 -24 12 -1 14 -3 13 -9 -6 -4 -14 -8 -20
-9 -13 -1 6 -4 18 -7 26 -4 11 2 17 23 20 63 9 73 8 73 -13z m415 10 c15 -7
10 -9 -23 -9 -26 -1 -41 3 -37 9 7 12 32 12 60 0z m-635 -20 c0 -5 -2 -10 -4
-10 -3 0 -8 5 -11 10 -3 6 -1 10 4 10 6 0 11 -4 11 -10z m445 0 c16 -7 13 -9
-17 -9 -21 -1 -38 4 -38 9 0 12 27 12 55 0z m645 -45 c0 -37 -4 -55 -12 -55
-7 0 -51 -4 -98 -10 -47 -5 -105 -10 -129 -12 l-44 -2 -4 47 c-3 33 0 49 9 52
7 2 69 11 138 18 69 8 128 15 133 16 4 0 7 -24 7 -54z m-870 7 c0 -10 -44 -32
-63 -32 -7 0 2 9 18 20 32 22 45 25 45 12z m439 -24 c41 -15 14 -21 -38 -8
-28 7 -48 16 -45 21 5 9 37 4 83 -13z m1679 0 c-5 -16 -118 -24 -118 -9 0 10
31 17 88 20 23 1 32 -3 30 -11z m-1808 -29 c63 -17 121 -35 130 -40 17 -12 17
-12 -145 27 -60 15 -114 31 -119 35 -17 15 15 10 134 -22z m1588 14 c-10 -2
-26 -2 -35 0 -10 3 -2 5 17 5 19 0 27 -2 18 -5z m-288 -28 c0 -18 -21 -21
-265 -40 -110 -8 -235 -18 -279 -22 -65 -5 -78 -4 -74 8 4 11 74 20 309 40
167 15 305 27 307 28 1 0 2 -6 2 -14z m-2012 -12 c-5 -26 -44 -29 -51 -4 -4
18 0 21 25 21 23 0 29 -4 26 -17z m282 -3 c0 -5 -2 -10 -4 -10 -3 0 -8 5 -11
10 -3 6 -1 10 4 10 6 0 11 -4 11 -10z m328 -9 c41 -11 76 -22 80 -25 3 -3 -17
-6 -44 -6 -27 0 -66 -3 -86 -6 -37 -6 -38 -6 -38 25 0 17 3 31 8 31 4 0 40 -9
80 -19z m-678 -1 c0 -5 -9 -10 -21 -10 -11 0 -17 5 -14 10 3 6 13 10 21 10 8
0 14 -4 14 -10z m126 3 c-11 -11 -35 -12 -42 -2 -3 5 7 9 22 9 15 0 24 -3 20
-7z m199 -33 c3 -5 2 -10 -4 -10 -5 0 -13 5 -16 10 -3 6 -2 10 4 10 5 0 13 -4
16 -10z m1015 -10 c0 -12 18 -9 -143 -24 -121 -10 -162 -7 -144 10 15 16 287
29 287 14z m-1215 -10 c-3 -5 -13 -10 -21 -10 -8 0 -14 5 -14 10 0 6 9 10 21
10 11 0 17 -4 14 -10z m345 -12 c0 -19 -2 -20 -10 -8 -13 19 -13 30 0 30 6 0
10 -10 10 -22z m-945 -7 c-3 -6 -11 -11 -17 -11 -6 0 -6 6 2 15 14 17 26 13
15 -4z m2555 4 c0 -19 -23 -22 -310 -40 -135 -8 -260 -17 -277 -19 -23 -3 -33
-1 -33 9 0 16 25 19 320 40 252 18 294 21 298 23 1 1 2 -5 2 -13z m-1635 -6
c-3 -4 -23 -9 -44 -11 -22 -2 -37 0 -35 3 2 4 0 9 -6 11 -5 1 12 3 40 4 27 0
47 -3 45 -7z m480 -4 c0 -14 -161 -27 -210 -17 -37 8 -34 9 55 19 111 12 155
12 155 -2z m-1208 -11 c-3 -3 -12 -4 -19 -1 -8 3 -5 6 6 6 11 1 17 -2 13 -5z
m439 -13 c-4 -6 -13 -8 -20 -5 -8 3 -16 -4 -19 -15 -5 -19 -13 -21 -80 -21
-58 0 -76 3 -81 15 -8 21 3 24 109 33 98 8 100 8 91 -7z m317 -6 c7 -16 -8
-29 -23 -20 -5 3 -10 1 -10 -4 0 -6 8 -11 18 -11 11 0 17 -8 18 -24 2 -22 -2
-25 -52 -28 -38 -2 -54 1 -54 10 0 6 5 12 10 12 6 0 19 9 30 20 16 16 17 20 5
20 -22 0 -18 14 8 26 32 16 44 16 50 -1z m865 -17 c-7 -21 -288 -39 -288 -19
0 14 87 24 238 29 39 2 53 -1 50 -10z m-975 -13 c-3 -9 -8 -14 -10 -11 -3 3
-2 9 2 15 9 16 15 13 8 -4z m1717 -23 c0 -17 -17 -20 -192 -30 -430 -26 -428
-26 -428 -10 0 17 31 21 345 38 105 6 197 13 205 14 44 10 70 6 70 -12z
m-1275 -2 c26 -7 23 -8 -20 -8 -27 0 -61 4 -75 8 -20 6 -17 8 20 8 25 0 59 -4
75 -8z m-835 -16 c0 -11 -5 -14 -16 -10 -9 3 -25 6 -35 6 -11 0 -17 5 -14 10
11 17 65 12 65 -6z m150 12 c0 -2 -9 -6 -20 -9 -11 -3 -20 -1 -20 4 0 5 9 9
20 9 11 0 20 -2 20 -4z m230 -26 c0 -5 -2 -10 -4 -10 -3 0 -8 5 -11 10 -3 6
-1 10 4 10 6 0 11 -4 11 -10z m990 -14 c0 -15 -61 -23 -215 -28 -57 -3 -70 0
-70 12 0 12 20 16 95 21 181 10 190 10 190 -5z m-866 -5 c3 -5 -6 -12 -20 -15
-29 -8 -39 -3 -29 13 8 13 42 14 49 2z m-1114 -10 c0 -5 -13 -9 -30 -9 -16 1
-30 5 -30 10 0 4 14 8 30 8 17 0 30 -4 30 -9z m60 -1 c0 -5 -7 -10 -15 -10 -8
0 -15 5 -15 10 0 6 7 10 15 10 8 0 15 -4 15 -10z m89 6 c-10 -10 -59 -14 -64
-5 -4 5 11 9 31 9 21 0 35 -2 33 -4z m818 -12 c-3 -3 -12 -4 -19 -1 -8 3 -5 6
6 6 11 1 17 -2 13 -5z m566 -15 c15 -6 -6 -8 -68 -4 -49 4 -94 11 -100 17 -12
13 134 2 168 -13z m1187 -57 l0 -63 -117 1 c-65 1 -205 -1 -311 -6 l-193 -7 3
53 c2 44 6 54 23 56 11 1 139 8 285 14 146 7 266 13 267 14 1 1 11 2 23 2 18
0 20 -6 20 -64z m-2010 48 c0 -5 -4 -10 -10 -10 -5 0 -10 5 -10 10 0 6 5 10
10 10 6 0 10 -4 10 -10z m308 -18 c3 -20 -1 -22 -41 -22 -24 0 -60 -2 -78 -5
-30 -4 -29 -3 9 10 23 7 49 21 58 30 22 21 48 15 52 -13z m39 12 c-3 -3 -12
-4 -19 -1 -8 3 -5 6 6 6 11 1 17 -2 13 -5z m-807 -20 c0 -2 -14 -4 -31 -4 -16
0 -28 4 -25 9 5 8 56 3 56 -5z m868 -23 c1 -40 -25 -49 -30 -11 -4 26 2 36 23
39 3 1 6 -12 7 -28z m862 -27 l0 -55 -110 2 c-73 1 -115 -3 -125 -11 -30 -25
-50 -8 -53 48 -3 59 -8 56 93 53 33 -1 83 3 110 8 89 16 85 18 85 -45z m-1800
36 c0 -5 -7 -7 -15 -4 -8 4 -15 8 -15 10 0 2 7 4 15 4 8 0 15 -4 15 -10z m216
-3 c4 -4 -2 -7 -14 -7 -16 0 -20 -4 -15 -17 5 -17 5 -17 -12 -1 -9 9 -14 21
-11 27 7 11 40 10 52 -2z m-176 -7 c0 -5 -5 -10 -11 -10 -5 0 -7 5 -4 10 3 6
8 10 11 10 2 0 4 -4 4 -10z m595 0 c4 -6 -7 -10 -24 -10 -17 0 -31 -4 -31 -10
0 -5 15 -10 33 -10 26 -1 29 -2 15 -11 -10 -5 -18 -19 -18 -31 0 -15 -3 -18
-13 -10 -7 6 -29 9 -50 7 -20 -1 -37 1 -37 6 0 5 12 10 28 10 l27 1 -30 7 -30
7 33 8 c42 10 33 21 -14 17 -46 -4 -44 17 4 22 74 8 101 7 107 -3z m-165 -10
c0 -5 -4 -10 -10 -10 -5 0 -10 5 -10 10 0 6 5 10 10 10 6 0 10 -4 10 -10z
m879 4 c17 -4 31 -10 31 -15 0 -8 -45 -3 -110 11 l-35 8 41 1 c23 1 56 -2 73
-5z m-991 -11 c-9 -2 -18 -12 -20 -21 -3 -13 -5 -12 -10 6 -5 19 -2 22 20 21
16 -1 20 -3 10 -6z m392 -2 c0 -5 3 -18 6 -28 5 -17 5 -17 -9 0 -8 9 -27 18
-43 18 l-29 1 30 8 c43 11 45 11 45 1z m75 -1 c-3 -5 -14 -10 -23 -10 -15 0
-15 2 -2 10 20 13 33 13 25 0z m433 -41 c88 -9 122 -16 122 -26 0 -10 -26 -13
-112 -13 -62 0 -137 -3 -165 -6 l-53 -7 0 38 0 38 43 -6 c23 -3 97 -11 165
-18z m-1125 4 c-7 -2 -19 -2 -25 0 -7 3 -2 5 12 5 14 0 19 -2 13 -5z m750 0
c-13 -2 -35 -2 -50 0 -16 2 -5 4 22 4 28 0 40 -2 28 -4z m-8 -32 c-3 -5 3 -12
12 -14 11 -3 8 -5 -9 -6 -27 -1 -35 8 -21 22 10 10 25 8 18 -2z m-52 -8 c-7
-2 -21 -2 -30 0 -10 3 -4 5 12 5 17 0 24 -2 18 -5z m-568 -13 c-3 -5 -10 -10
-16 -10 -5 0 -9 5 -9 10 0 6 7 10 16 10 8 0 12 -4 9 -10z m-55 -17 c0 -12 -11
-13 -57 -7 -95 11 -106 23 -20 22 59 -1 77 -4 77 -15z m740 -2 c0 -15 -9 -20
-45 -23 -25 -2 -45 0 -45 4 0 7 7 9 49 12 8 1 16 7 19 14 6 19 22 14 22 -7z
m1600 -1 c0 -19 -7 -20 -105 -20 -84 0 -105 3 -105 14 0 18 24 23 128 25 76 1
82 -1 82 -19z m-1710 -3 c0 -21 -12 -28 -27 -16 -19 16 -16 29 7 29 11 0 20
-6 20 -13z m1150 -7 c0 -5 -7 -10 -16 -10 -8 0 -12 5 -9 10 3 6 10 10 16 10 5
0 9 -4 9 -10z m235 0 c-58 -11 -197 -11 -215 0 -10 6 30 9 120 9 95 -1 123 -4
95 -9z m-645 -21 c0 -16 -5 -20 -27 -17 -17 2 -29 10 -31 21 -3 13 3 17 27 17
25 0 31 -4 31 -21z m48 3 c2 -7 -3 -12 -12 -12 -9 0 -16 7 -16 16 0 17 22 14
28 -4z m172 9 c0 -13 -30 -18 -72 -13 -57 6 -45 22 17 22 30 0 55 -4 55 -9z
m-980 -27 c0 -2 -7 -4 -15 -4 -8 0 -15 4 -15 10 0 5 7 7 15 4 8 -4 15 -8 15
-10z m116 -11 c-10 -10 -19 5 -10 18 6 11 8 11 12 0 2 -7 1 -15 -2 -18z m-96
-23 c0 -16 -7 -20 -35 -20 -22 0 -35 5 -35 13 0 20 10 27 42 27 21 0 28 -5 28
-20z m1710 -9 c0 -24 -26 -31 -127 -31 -82 0 -83 0 -83 25 l0 25 105 0 c96 0
105 -2 105 -19z m-1608 3 c12 -11 -5 -42 -25 -49 -27 -9 -25 -9 -64 -2 -25 5
-33 3 -33 -8 0 -10 -8 -14 -22 -11 -13 1 -23 8 -22 14 2 26 4 32 12 30 17 -3
113 15 118 23 6 10 28 12 36 3z m-245 -10 c-3 -3 -12 -4 -19 -1 -8 3 -5 6 6 6
11 1 17 -2 13 -5z m883 -14 c0 -16 -7 -20 -30 -20 -23 0 -30 4 -30 20 0 16 7
20 30 20 23 0 30 -4 30 -20z m-450 -20 c0 -5 -2 -10 -4 -10 -3 0 -8 5 -11 10
-3 6 -1 10 4 10 6 0 11 -4 11 -10z m190 6 c0 -3 -4 -8 -10 -11 -5 -3 -10 -1
-10 4 0 6 5 11 10 11 6 0 10 -2 10 -4z m998 -63 c-3 -16 -18 -18 -128 -21
-136 -3 -153 0 -144 23 5 12 29 15 141 15 123 0 134 -2 131 -17z m232 -3 c0
-19 -7 -20 -105 -20 -98 0 -105 1 -105 20 0 19 7 20 105 20 98 0 105 -1 105
-20z m290 5 c0 -8 -7 -15 -15 -15 -8 0 -15 5 -15 11 0 5 5 7 10 4 6 -3 10 -1
10 4 0 6 2 11 5 11 3 0 5 -7 5 -15z m-1260 -10 c0 -8 -9 -15 -20 -15 -11 0
-23 0 -27 -1 -5 0 -9 7 -11 15 -3 12 5 16 27 16 21 0 31 -5 31 -15z m58 3 c9
-9 12 -9 12 0 0 9 21 12 78 10 111 -4 92 -22 -28 -26 -84 -2 -100 0 -100 13 0
18 21 20 38 3z m-439 -14 c2 -2 -29 -3 -70 -2 -50 1 -64 3 -44 8 28 6 105 2
114 -6z m151 6 c0 -5 -13 -10 -30 -10 -16 0 -30 5 -30 10 0 6 14 10 30 10 17
0 30 -4 30 -10z m230 -110 c0 -49 -1 -50 -30 -50 -29 0 -30 1 -30 50 0 49 1
50 30 50 29 0 30 -1 30 -50z m226 -2 c-2 -43 -6 -53 -19 -52 -9 0 -55 1 -102
2 l-85 2 0 50 0 50 104 0 103 0 -1 -52z m514 -3 l0 -55 -140 0 -140 0 0 55 0
55 140 0 140 0 0 -55z m230 1 c0 -30 -5 -58 -10 -61 -6 -3 -53 -3 -105 1 l-95
7 0 53 0 54 105 0 105 0 0 -54z m290 -6 c0 -43 -4 -60 -13 -60 -24 0 -27 12
-11 41 13 27 13 30 -2 36 -15 5 -14 7 2 16 17 10 17 11 -1 18 -19 7 -18 8 3 8
20 1 22 -3 22 -59z m-1710 37 c0 -9 -11 -12 -35 -9 -19 2 -35 8 -35 13 0 5 16
9 35 9 22 0 35 -5 35 -13z m-555 -7 c3 -5 -1 -10 -9 -10 -9 0 -16 5 -16 10 0
6 4 10 9 10 6 0 13 -4 16 -10z m515 -26 c0 -2 -7 -4 -15 -4 -8 0 -15 4 -15 10
0 5 7 7 15 4 8 -4 15 -8 15 -10z m-680 -6 c0 -7 -11 -13 -25 -13 -14 0 -27 6
-30 13 -3 8 6 12 25 12 17 0 30 -5 30 -12z m214 -53 c-8 -19 -35 -19 -60 0
-18 13 -16 14 23 15 34 0 41 -3 37 -15z m201 -45 c-44 -3 -84 -4 -90 -1 -17 9
56 16 115 11 55 -4 55 -4 -25 -10z m755 -5 c0 -10 -10 -15 -30 -15 -20 0 -30
5 -30 15 0 10 10 15 30 15 20 0 30 -5 30 -15z m48 -3 c2 -7 -3 -12 -12 -12 -9
0 -16 7 -16 16 0 17 22 14 28 -4z m145 9 c26 -1 37 -5 34 -13 -2 -7 -13 -12
-23 -11 -10 1 -47 3 -81 4 -35 1 -63 5 -63 10 0 8 42 15 75 12 11 -1 37 -2 58
-2z m515 -8 c18 -3 32 -11 32 -19 0 -11 -18 -13 -87 -10 -49 2 -133 5 -188 7
-55 1 -80 4 -55 6 25 3 49 9 55 14 10 10 180 11 243 2z m180 -3 c66 0 82 -3
82 -15 0 -12 -18 -15 -105 -15 -100 0 -105 1 -105 21 0 17 4 20 23 15 12 -3
59 -6 105 -6z m372 -27 c0 -10 -4 -14 -8 -8 -4 6 -11 13 -16 18 -5 4 -2 7 7 7
10 0 17 -8 17 -17z m-1247 -45 c15 -11 11 -13 -28 -16 -35 -2 -45 1 -45 13 0
19 49 21 73 3z m34 -10 c-3 -8 -6 -5 -6 6 -1 11 2 17 5 13 3 -3 4 -12 1 -19z
m895 -8 c18 0 28 -5 28 -15 0 -12 -18 -15 -105 -15 -101 0 -105 1 -105 21 0
21 3 22 77 15 42 -3 89 -6 105 -6z m-1872 -45 c0 -8 -6 -15 -14 -15 -20 0 -29
17 -14 23 22 9 28 7 28 -8z m485 5 c-44 -11 -75 -11 -75 0 0 6 23 9 53 9 44
-1 48 -2 22 -9z m-201 -15 c-4 -8 -7 -15 -9 -15 -2 0 -5 7 -9 15 -3 9 0 15 9
15 9 0 12 -6 9 -15z m646 -9 c0 -20 -12 -26 -38 -19 -33 8 -27 33 8 33 19 0
30 -5 30 -14z m-685 -6 c3 -5 1 -10 -4 -10 -6 0 -11 5 -11 10 0 6 2 10 4 10 3
0 8 -4 11 -10z m740 -1 c-7 -11 -35 -12 -35 -1 0 4 9 8 20 9 11 1 18 -2 15 -8z
m59 2 c3 -5 -5 -8 -19 -8 -14 0 -22 3 -19 8 3 5 11 9 19 9 8 0 16 -4 19 -9z
m113 -3 c-2 -7 -13 -12 -23 -10 -30 5 -38 5 -53 1 -7 -2 -15 1 -17 6 -2 6 18
11 47 13 39 2 50 0 46 -10z m641 -14 c75 -5 102 -10 102 -20 0 -7 -4 -15 -8
-18 -5 -3 -130 1 -278 9 -148 8 -284 15 -301 15 -24 0 -33 5 -33 16 0 15 20
16 208 10 114 -4 253 -9 310 -12z m-868 -100 c0 -54 0 -55 -27 -52 -26 3 -28
7 -31 56 l-3 52 30 0 c31 0 31 0 31 -56z m925 4 c42 -3 41 0 44 -75 1 -23 10
-25 204 -39 48 -3 87 -10 87 -16 0 -10 -140 -6 -370 13 -63 5 -127 9 -142 9
-33 0 -37 17 -5 22 25 3 37 46 16 58 -6 5 -71 11 -143 16 -72 4 -143 9 -158
10 -16 1 -48 2 -73 3 -31 1 -43 5 -40 14 4 10 59 10 273 0 147 -7 285 -13 307
-15z m-708 -20 c-3 -7 -5 -2 -5 12 0 14 2 19 5 13 2 -7 2 -19 0 -25z m477 -28
c5 -5 -8 -12 -28 -15 -20 -4 -36 -11 -36 -15 0 -5 15 -4 32 1 18 5 34 9 35 9
1 0 0 -7 -4 -16 -5 -13 -17 -15 -72 -10 -36 3 -104 8 -151 11 -132 9 -137 11
-126 40 5 15 24 16 174 10 92 -4 171 -11 176 -15z m-694 -69 c0 -16 -19 -23
-40 -16 -30 10 -24 25 10 25 17 0 30 -4 30 -9z m190 -21 c0 -5 -2 -10 -4 -10
-3 0 -8 5 -11 10 -3 6 -1 10 4 10 6 0 11 -4 11 -10z m37 4 c-3 -3 -12 -4 -19
-1 -8 3 -5 6 6 6 11 1 17 -2 13 -5z m438 -19 c121 -8 279 -19 350 -25 72 -5
156 -10 188 -11 48 -2 57 -5 57 -21 0 -12 -7 -18 -22 -18 -69 0 -599 42 -628
50 -19 5 -78 12 -130 15 -52 3 -105 8 -117 11 -42 11 -23 23 30 18 28 -2 151
-11 272 -19z m800 16 c3 -5 2 -11 -2 -14 -15 -7 -113 5 -113 14 0 12 107 12
115 0z m103 -312 c-2 -169 -7 -311 -11 -315 -4 -4 -10 -4 -14 0 -12 12 -14
595 -2 617 27 51 31 2 27 -302z m-1568 250 c0 -12 -47 -12 -54 0 -3 4 -3 10 0
13 7 8 54 -3 54 -13z m1433 -9 c31 0 37 -3 37 -21 0 -19 -4 -21 -37 -15 -21 3
-48 6 -60 6 -17 0 -23 6 -23 21 0 17 4 20 23 15 12 -3 39 -6 60 -6z m-888 -24
c220 -16 635 -48 673 -52 28 -4 42 -10 42 -20 0 -12 -9 -14 -42 -9 -24 3 -178
17 -343 31 -300 26 -478 42 -482 43 -2 1 -3 5 -3 10 0 4 17 7 38 5 20 -1 73
-5 117 -8z m-422 -43 c88 -5 119 -14 104 -30 -3 -3 -69 1 -146 8 -111 10 -141
16 -141 27 0 12 9 13 43 8 23 -4 86 -9 140 -13z m347 -28 c108 -7 296 -23 425
-35 55 -5 160 -14 233 -21 118 -10 132 -13 132 -30 0 -23 12 -23 -245 1 -562
52 -651 61 -662 65 -7 2 -13 12 -13 21 0 12 6 15 23 11 12 -3 60 -8 107 -12z
m984 -1 c35 -13 13 -25 -41 -22 -70 4 -88 28 -20 28 25 0 52 -3 61 -6z m-1334
-47 l104 -12 4 -57 c2 -43 -1 -58 -10 -58 -7 0 -67 7 -133 15 -65 8 -125 15
-132 15 -9 0 -13 17 -13 55 l0 55 38 -1 c20 0 84 -6 142 -12z m673 -67 c221
-22 417 -43 435 -46 l32 -5 0 -65 0 -65 -42 6 c-24 3 -144 17 -268 31 -124 14
-310 35 -415 47 l-190 22 -3 38 c-3 34 -1 37 25 38 l28 2 -27 4 c-35 5 -37 33
-3 33 14 0 206 -18 428 -40z m670 23 c19 -11 5 -33 -22 -33 -58 0 -91 12 -91
32 0 18 5 19 53 13 28 -4 55 -9 60 -12z m-23 -92 c22 -6 24 -11 23 -66 0 -36
-6 -61 -13 -63 -6 -2 -31 -1 -56 3 l-44 6 0 65 0 64 33 -1 c17 -1 43 -4 57 -8z
m-1327 -32 c66 -8 107 -17 107 -24 0 -8 -36 -6 -127 6 -71 10 -136 18 -145 19
-10 0 -18 5 -18 11 0 8 13 10 38 6 20 -3 85 -12 145 -18z m602 -69 c132 -16
305 -37 385 -46 80 -9 149 -21 154 -25 28 -25 0 -23 -474 36 -113 14 -243 30
-290 36 -119 13 -150 20 -150 31 0 11 42 8 375 -32z m-607 -21 c61 -7 112 -16
112 -21 0 -4 -3 -8 -7 -8 -31 1 -287 41 -292 46 -3 3 12 4 34 0 22 -3 91 -11
153 -17z m-888 -3 c0 -11 -33 -36 -40 -31 -15 9 1 35 21 35 10 0 19 -2 19 -4z
m1295 -50 c61 -9 252 -34 425 -57 173 -23 317 -43 319 -45 14 -13 -20 -13
-115 0 -60 8 -161 22 -224 30 -63 9 -194 27 -290 40 -96 13 -201 28 -232 31
-32 4 -55 11 -52 16 2 5 17 6 32 4 15 -3 77 -11 137 -19z m914 -12 c18 -4 31
-13 31 -21 0 -12 -7 -14 -31 -9 -17 3 -42 6 -55 6 -15 0 -24 6 -24 15 0 16 27
19 79 9z m-1582 -30 c-3 -3 -12 -4 -19 -1 -8 3 -5 6 6 6 11 1 17 -2 13 -5z
m66 -11 c-7 -2 -19 -2 -25 0 -7 3 -2 5 12 5 14 0 19 -2 13 -5z m65 -10 c-10
-2 -26 -2 -35 0 -10 3 -2 5 17 5 19 0 27 -2 18 -5z m65 -10 c-7 -2 -19 -2 -25
0 -7 3 -2 5 12 5 14 0 19 -2 13 -5z m70 -10 c-7 -2 -21 -2 -30 0 -10 3 -4 5
12 5 17 0 24 -2 18 -5z m65 -10 c-10 -2 -26 -2 -35 0 -10 3 -2 5 17 5 19 0 27
-2 18 -5z m215 -30 c-7 -2 -21 -2 -30 0 -10 3 -4 5 12 5 17 0 24 -2 18 -5z
m1036 1 c17 -4 31 -10 31 -14 0 -10 -92 0 -104 11 -12 11 27 12 73 3z m-944
-13 c34 -7 35 -9 10 -9 -16 0 -43 4 -60 8 -42 11 -1 11 50 1z m1071 -118 c-4
-64 -9 -119 -11 -122 -3 -2 -5 50 -5 117 0 82 4 122 11 122 8 0 9 -35 5 -117z
m-978 100 c-10 -2 -26 -2 -35 0 -10 3 -2 5 17 5 19 0 27 -2 18 -5z m65 -10
c-7 -2 -21 -2 -30 0 -10 3 -4 5 12 5 17 0 24 -2 18 -5z m70 -10 c-7 -2 -21 -2
-30 0 -10 3 -4 5 12 5 17 0 24 -2 18 -5z m65 -10 c-10 -2 -26 -2 -35 0 -10 3
-2 5 17 5 19 0 27 -2 18 -5z m65 -10 c-7 -2 -21 -2 -30 0 -10 3 -4 5 12 5 17
0 24 -2 18 -5z m70 -10 c-7 -2 -21 -2 -30 0 -10 3 -4 5 12 5 17 0 24 -2 18 -5z
m65 -10 c-10 -2 -26 -2 -35 0 -10 3 -2 5 17 5 19 0 27 -2 18 -5z m65 -10 c-7
-2 -21 -2 -30 0 -10 3 -4 5 12 5 17 0 24 -2 18 -5z m107 -12 c34 -6 37 -9 15
-9 -16 -1 -48 3 -70 7 -53 11 -5 12 55 2z m93 -18 c-7 -2 -21 -2 -30 0 -10 3
-4 5 12 5 17 0 24 -2 18 -5z m140 -20 c-7 -2 -19 -2 -25 0 -7 3 -2 5 12 5 14
0 19 -2 13 -5z m67 -12 c0 -4 -11 -6 -25 -3 -14 2 -25 6 -25 8 0 2 11 4 25 4
14 0 25 -4 25 -9z"/>
<path d="M4408 2723 c7 -3 16 -2 19 1 4 3 -2 6 -13 5 -11 0 -14 -3 -6 -6z"/>
<path d="M3825 2530 c-3 -5 1 -10 10 -10 9 0 13 5 10 10 -3 6 -8 10 -10 10 -2
0 -7 -4 -10 -10z"/>
<path d="M3835 2220 c-3 -5 -1 -10 4 -10 6 0 11 5 11 10 0 6 -2 10 -4 10 -3 0
-8 -4 -11 -10z"/>
<path d="M3996 2030 c-1 -3 -2 -11 -2 -19 1 -12 14 -14 61 -12 72 3 86 10 24
12 l-44 2 35 6 c33 7 32 7 -18 12 -30 2 -55 2 -56 -1z"/>
<path d="M4547 1673 c-11 -11 -8 -21 9 -27 13 -5 14 -4 6 7 -7 8 -9 17 -5 20
3 4 4 7 1 7 -2 0 -8 -3 -11 -7z"/>
<path d="M4555 1620 c3 -5 8 -10 11 -10 2 0 4 5 4 10 0 6 -5 10 -11 10 -5 0
-7 -4 -4 -10z"/>
<path d="M4568 873 c7 -3 16 -2 19 1 4 3 -2 6 -13 5 -11 0 -14 -3 -6 -6z"/>
<path d="M4653 863 c9 -2 25 -2 35 0 9 3 1 5 -18 5 -19 0 -27 -2 -17 -5z"/>
<path d="M4943 833 c9 -2 25 -2 35 0 9 3 1 5 -18 5 -19 0 -27 -2 -17 -5z"/>
<path d="M5038 823 c12 -2 30 -2 40 0 9 3 -1 5 -23 4 -22 0 -30 -2 -17 -4z"/>
<path d="M5123 813 c9 -2 25 -2 35 0 9 3 1 5 -18 5 -19 0 -27 -2 -17 -5z"/>
<path d="M5228 803 c12 -2 30 -2 40 0 9 3 -1 5 -23 4 -22 0 -30 -2 -17 -4z"/>
<path d="M5308 793 c12 -2 32 -2 45 0 12 2 2 4 -23 4 -25 0 -35 -2 -22 -4z"/>
<path d="M5408 783 c12 -2 32 -2 45 0 12 2 2 4 -23 4 -25 0 -35 -2 -22 -4z"/>
<path d="M5498 773 c12 -2 32 -2 45 0 12 2 2 4 -23 4 -25 0 -35 -2 -22 -4z"/>
<path d="M5598 763 c12 -2 32 -2 45 0 12 2 2 4 -23 4 -25 0 -35 -2 -22 -4z"/>
<path d="M5688 753 c12 -2 30 -2 40 0 9 3 -1 5 -23 4 -22 0 -30 -2 -17 -4z"/>
<path d="M5888 733 c12 -2 30 -2 40 0 9 3 -1 5 -23 4 -22 0 -30 -2 -17 -4z"/>
<path d="M5043 3063 c9 -2 23 -2 30 0 6 3 -1 5 -18 5 -16 0 -22 -2 -12 -5z"/>
<path d="M4983 3053 c9 -2 23 -2 30 0 6 3 -1 5 -18 5 -16 0 -22 -2 -12 -5z"/>
<path d="M4928 3043 c6 -2 18 -2 25 0 6 3 1 5 -13 5 -14 0 -19 -2 -12 -5z"/>
<path d="M4738 3013 c6 -2 18 -2 25 0 6 3 1 5 -13 5 -14 0 -19 -2 -12 -5z"/>
<path d="M4678 3003 c6 -2 18 -2 25 0 6 3 1 5 -13 5 -14 0 -19 -2 -12 -5z"/>
<path d="M4628 2993 c6 -2 18 -2 25 0 6 3 1 5 -13 5 -14 0 -19 -2 -12 -5z"/>
<path d="M4556 2981 c-3 -4 6 -6 19 -3 14 2 25 6 25 8 0 8 -39 4 -44 -5z"/>
<path d="M4468 2963 c6 -2 18 -2 25 0 6 3 1 5 -13 5 -14 0 -19 -2 -12 -5z"/>
<path d="M4398 2953 c7 -3 16 -2 19 1 4 3 -2 6 -13 5 -11 0 -14 -3 -6 -6z"/>
<path d="M4323 2943 c9 -2 25 -2 35 0 9 3 1 5 -18 5 -19 0 -27 -2 -17 -5z"/>
<path d="M4268 2933 c7 -3 16 -2 19 1 4 3 -2 6 -13 5 -11 0 -14 -3 -6 -6z"/>
<path d="M1236 2858 c-4 -21 -2 -35 6 -40 10 -6 9 -11 -4 -22 -22 -16 -23 -26
-3 -26 8 0 15 -9 15 -20 0 -22 15 -27 23 -7 4 9 8 8 16 -3 6 -9 6 -19 1 -26
-6 -6 -7 -13 -5 -16 9 -9 14 -48 7 -48 -4 0 -18 12 -31 25 -24 26 -41 32 -41
15 0 -5 7 -10 16 -10 13 0 14 -3 5 -13 -6 -8 -8 -17 -4 -20 3 -4 1 -7 -5 -7
-7 0 -12 7 -12 15 0 9 -6 12 -16 8 -12 -4 -14 0 -8 21 5 23 3 26 -22 28 -16 0
-33 2 -39 3 -5 2 -14 3 -20 4 -5 1 -2 6 8 12 21 12 22 29 2 29 -8 0 -15 -4
-15 -10 0 -5 -8 -10 -17 -10 -15 1 -14 4 6 21 13 11 21 22 18 26 -4 3 -19 -7
-34 -22 -19 -18 -24 -29 -15 -32 20 -7 14 -23 -13 -35 -19 -9 -22 -14 -14 -25
9 -10 8 -13 -5 -13 -9 0 -16 -4 -16 -10 0 -5 -7 -7 -15 -4 -11 5 -13 2 -9 -10
4 -11 2 -15 -7 -11 -8 2 -23 -2 -34 -10 -19 -15 -19 -16 -1 -33 18 -16 18 -16
13 0 -3 10 -2 20 3 23 6 4 10 1 10 -5 0 -7 9 -9 23 -5 21 6 21 6 -3 -15 -14
-11 -18 -18 -9 -15 11 4 18 -1 22 -14 3 -12 10 -21 16 -21 7 0 9 10 5 25 -4
15 -2 25 4 25 6 0 19 3 29 6 17 5 17 5 0 -9 -12 -10 -14 -17 -8 -22 17 -10 13
-23 -9 -30 -12 -4 -31 0 -44 9 -26 16 -42 10 -25 -10 6 -7 17 -10 25 -7 8 3
14 0 14 -7 0 -7 8 -9 23 -4 27 9 55 8 85 -1 40 -13 23 -24 -31 -18 -41 4 -57
2 -69 -10 -13 -13 -21 -14 -47 -4 -17 6 -31 17 -31 25 0 9 9 7 30 -8 25 -18
30 -19 30 -6 0 9 -7 16 -15 16 -8 0 -15 5 -15 10 0 6 -10 10 -22 10 -15 0 -19
3 -11 8 9 6 8 12 -7 24 -17 15 -20 15 -32 0 -8 -10 -9 -13 -1 -9 6 4 14 3 18
-3 3 -5 1 -10 -6 -10 -8 0 -8 -4 1 -15 10 -13 10 -19 -4 -33 -20 -23 -21 -39
-1 -22 13 10 15 9 15 -8 0 -27 -21 -38 -90 -45 -30 -4 -66 -9 -80 -12 -102
-20 -540 -94 -562 -95 -15 0 -30 -4 -33 -10 -9 -14 -6 -1133 3 -1142 4 -4 32
-12 62 -17 l55 -10 -55 4 c-30 2 -71 6 -90 10 -22 3 -12 -2 25 -15 33 -12 68
-19 78 -16 10 2 82 -6 160 -20 152 -25 221 -30 122 -8 -98 22 -2 10 280 -36
138 -22 295 -47 350 -56 55 -8 108 -17 118 -20 14 -4 17 1 17 34 l0 39 -82 11
c-46 7 -181 26 -300 44 -213 31 -218 32 -218 55 0 23 2 23 68 17 68 -6 426
-49 495 -60 29 -5 37 -3 37 10 0 17 -12 19 -160 36 -181 21 -432 59 -439 66
-3 4 17 4 44 0 28 -3 147 -18 265 -31 118 -14 232 -27 253 -31 28 -4 37 -2 37
8 0 14 -149 36 -470 69 -111 12 -136 16 -128 24 3 3 106 -6 229 -20 333 -38
373 -41 367 -24 -4 13 -218 40 -510 65 -49 4 -88 11 -88 15 0 5 6 9 14 9 18 0
511 -48 554 -54 23 -3 32 -1 32 9 0 18 -15 20 -300 45 -309 27 -300 25 -300
56 0 25 1 26 63 20 34 -3 150 -13 257 -21 107 -8 214 -17 238 -20 31 -3 42 -1
42 9 0 17 -31 21 -347 42 -139 10 -253 21 -253 26 0 11 -4 11 300 -12 317 -24
300 -23 300 -7 0 14 -105 23 -482 44 -67 3 -118 10 -118 16 0 6 32 8 88 4 234
-17 503 -29 509 -23 16 16 -28 21 -297 36 -158 8 -292 18 -296 23 -10 10 85 8
356 -7 202 -11 256 -9 238 9 -3 4 -138 13 -299 20 -162 8 -295 14 -296 14 -2
1 -3 13 -3 29 l0 27 296 -8 c162 -5 298 -6 301 -4 20 20 -21 27 -160 27 -169
0 -440 11 -433 17 6 7 495 3 549 -3 38 -5 47 -4 47 9 0 13 -43 16 -305 22
-168 4 -304 10 -301 12 2 3 140 4 305 3 265 -1 301 1 301 15 0 13 -37 15 -306
15 -201 0 -303 3 -299 10 4 6 117 10 306 10 236 0 300 3 297 12 -4 10 -74 13
-303 13 l-298 0 -3 28 c-2 25 0 27 34 28 532 12 589 16 570 35 -3 3 -138 1
-299 -3 -162 -5 -296 -7 -298 -6 -13 9 30 12 297 21 162 6 296 13 299 16 17
17 -32 18 -299 8 -269 -10 -309 -10 -297 2 3 3 138 11 302 17 231 10 297 16
297 26 0 16 14 16 -325 -1 -160 -8 -274 -10 -279 -5 -6 6 -2 9 10 9 10 0 129
7 264 15 135 8 264 15 288 15 32 0 42 4 42 16 0 14 -10 16 -77 10 -66 -5 -186
-12 -483 -29 -42 -2 -45 0 -48 25 -4 31 -19 28 374 57 161 11 229 20 232 29 5
16 -7 16 -293 -8 -132 -11 -258 -19 -280 -19 -92 2 27 18 290 39 246 20 300
29 283 45 -3 4 -134 -5 -289 -19 -316 -29 -327 -30 -313 -18 5 5 92 16 194 25
372 34 410 39 410 55 0 12 -9 13 -47 8 -70 -9 -533 -56 -551 -56 -8 0 -12 3
-8 7 3 4 140 21 303 37 205 22 298 35 301 44 6 18 -28 16 -323 -18 -143 -16
-266 -30 -273 -30 -9 0 -12 10 -10 28 l3 27 205 27 c113 15 221 27 240 26 20
-1 41 1 47 5 6 4 23 3 38 -3 36 -14 40 -13 24 7 -9 11 -10 14 -2 9 7 -4 21 -3
30 3 19 10 20 20 22 164 l1 67 40 0 40 0 1 -587 c1 -1002 1 -983 24 -983 11 0
42 -7 69 -15 27 -8 76 -17 110 -20 61 -5 147 -18 640 -100 246 -41 301 -47
269 -27 -6 4 -13 18 -14 32 -4 25 -7 25 -266 65 -145 22 -263 43 -263 47 0 5
10 6 23 3 12 -3 99 -16 192 -30 94 -14 207 -31 253 -38 80 -13 83 -13 65 4
-14 15 -75 27 -278 56 l-260 38 0 35 c0 25 4 34 15 33 149 -21 483 -63 499
-63 14 0 21 6 21 20 0 11 -5 20 -11 20 -24 0 -505 61 -518 66 -47 16 28 12
254 -16 141 -17 260 -28 266 -25 14 10 11 23 -8 29 -10 3 -128 17 -263 32
-135 14 -249 30 -255 35 -14 13 17 11 259 -16 257 -29 276 -30 276 -11 0 17
-7 18 -305 47 -198 19 -249 28 -234 44 3 2 119 -7 257 -21 139 -14 261 -23
270 -19 9 4 36 7 59 6 39 -2 41 -1 39 23 -3 20 1 26 15 26 11 0 19 4 19 9 0 5
-11 9 -25 9 -16 0 -25 -6 -25 -17 0 -14 -2 -14 -10 -1 -8 13 -10 12 -10 -2 0
-10 6 -18 13 -19 6 0 4 -4 -6 -7 -10 -4 -75 -2 -145 5 -70 6 -179 17 -242 23
-223 21 -210 17 -210 56 l0 35 88 -6 c252 -18 442 -35 458 -41 15 -5 16 -4 8
5 -17 18 -5 51 17 51 11 0 19 7 19 15 0 18 -29 9 -50 -16 -14 -16 -25 -17
-115 -9 -55 4 -170 14 -255 20 -85 7 -159 16 -164 21 -14 13 26 12 287 -7 169
-13 231 -14 239 -6 7 7 9 14 6 18 -4 3 -125 13 -269 22 -201 13 -263 20 -267
31 -3 10 6 12 44 7 27 -3 147 -11 267 -17 172 -10 221 -9 227 0 5 8 19 10 44
6 23 -5 41 -3 51 5 7 6 24 10 36 8 12 -2 24 3 26 10 3 6 -2 12 -11 12 -11 0
-16 9 -16 30 0 29 -2 30 -45 30 -25 0 -45 -4 -45 -10 0 -5 5 -10 11 -10 5 0 7
-4 4 -10 -8 -13 -52 -13 -57 0 -2 5 -114 14 -258 20 -140 7 -261 13 -267 15
-7 3 -13 20 -13 40 l0 35 260 -7 c195 -5 263 -3 274 6 11 9 15 9 18 0 3 -9 12
-7 31 6 16 10 27 13 27 6 0 -6 5 -11 10 -11 25 0 3 35 -25 40 -26 4 -29 9 -32
44 -1 22 -4 45 -7 52 -4 9 9 14 42 16 31 2 46 7 44 16 -1 6 2 12 8 12 5 0 10
4 10 9 0 5 -16 9 -36 9 -26 0 -34 -4 -30 -14 4 -10 -2 -14 -19 -14 -13 0 -28
-7 -33 -16 -10 -18 5 -17 -304 -15 -151 0 -238 5 -238 11 0 6 97 10 271 10
250 0 270 1 267 17 -3 16 -25 17 -271 14 l-267 -3 0 40 0 39 118 7 c64 3 181
6 260 7 115 1 144 4 149 15 3 8 4 16 2 18 -2 2 -121 0 -263 -5 -240 -8 -277
-7 -265 6 3 2 123 8 268 13 234 7 264 10 273 26 8 14 18 16 54 10 42 -6 44 -5
44 20 0 18 5 26 18 25 10 0 12 -3 5 -6 -28 -11 -10 -18 52 -20 36 -1 63 2 61
6 -3 5 -17 6 -31 3 -18 -3 -25 0 -25 12 0 9 7 16 15 16 8 0 15 9 15 19 0 11 4
22 8 25 18 11 71 16 77 6 3 -5 13 -6 23 -3 16 7 16 5 -1 -20 l-17 -27 62 1
c51 1 58 2 35 9 -16 5 -35 6 -43 3 -9 -3 -14 2 -14 15 0 16 8 23 35 28 19 3
49 4 65 2 17 -3 29 0 27 5 -2 6 -40 9 -90 8 -56 -1 -87 2 -87 8 0 7 -32 11
-87 11 -89 0 -106 15 -28 23 22 3 3 3 -42 1 -62 -2 -84 1 -93 11 -7 8 -16 12
-21 9 -5 -3 -9 2 -9 10 0 9 8 16 19 16 10 0 21 6 24 14 8 20 -4 28 -20 15 -10
-9 -13 -8 -13 3 0 8 16 19 38 25 l37 10 -42 2 c-41 1 -43 0 -43 -29 0 -16 -4
-30 -10 -30 -11 0 -13 24 -4 58 5 18 13 22 50 22 23 0 46 5 49 10 3 6 19 10
35 10 16 0 30 7 34 16 9 24 8 26 -14 19 -17 -5 -20 -2 -20 24 0 22 5 31 17 31
9 0 14 2 11 5 -3 3 -33 -1 -67 -9 -85 -20 -96 -17 -96 27 0 32 3 37 23 37 12
0 22 5 22 10 0 6 -10 10 -22 10 -29 0 -20 6 22 14 24 4 30 3 20 -3 -19 -13 -9
-22 17 -15 34 9 16 34 -23 34 -24 0 -34 5 -34 15 0 8 7 15 15 15 8 0 15 5 15
10 0 6 -7 10 -15 10 -8 0 -15 9 -15 19 0 11 -5 21 -10 23 -6 2 -12 13 -13 26
0 12 -7 22 -14 22 -11 0 -11 4 -1 20 9 15 24 20 53 20 38 0 65 13 65 31 0 9
-73 -1 -80 -11 -3 -4 -27 -10 -55 -13 -34 -5 -45 -4 -35 3 8 5 25 10 38 10 23
0 24 2 24 58 1 29 8 37 32 33 45 -9 88 32 49 46 -10 3 -28 15 -40 26 -13 11
-23 15 -23 9 0 -7 -7 -12 -16 -12 -8 0 -12 4 -9 10 3 5 0 7 -9 4 -16 -6 -18
-42 -3 -62 6 -7 8 -13 6 -15 -37 -21 -52 -27 -68 -27 -14 0 -18 -5 -14 -20 3
-13 0 -20 -8 -21 -8 -1 -26 -3 -41 -5 -26 -3 -38 9 -20 19 4 2 1 2 -6 1 -7 -2
-15 3 -18 11 -5 11 -19 13 -62 9 -70 -7 -104 9 -96 43 5 17 2 23 -9 23 -20 0
-31 -16 -17 -25 13 -8 13 -25 0 -25 -5 0 -10 7 -10 15 0 8 -7 15 -15 15 -8 0
-15 5 -15 10 0 13 -47 13 -55 1 -3 -5 -1 -12 5 -16 18 -11 10 -21 -18 -20 -22
0 -28 5 -30 23 -2 30 -10 42 -25 42 -7 0 -6 -4 3 -10 8 -5 12 -11 10 -12 -3
-2 -18 -12 -33 -21 -15 -10 -25 -23 -21 -28 4 -7 -6 -10 -27 -8 -19 1 -42 -2
-52 -6 -10 -4 -21 -5 -24 -1 -3 3 -12 1 -19 -5 -18 -15 -48 -3 -40 16 4 11 -2
15 -19 15 -29 0 -32 -8 -7 -26 16 -12 15 -13 -7 -14 -16 0 -21 -4 -17 -15 9
-25 -4 -44 -30 -41 -13 2 -26 5 -29 7 -8 9 -75 -3 -69 -12 3 -5 -2 -9 -11 -9
-8 0 -20 -10 -24 -22 -9 -23 -9 -23 -20 6 -9 23 -9 31 1 37 9 6 7 14 -9 31
-14 15 -20 31 -17 44 4 14 0 23 -11 28 -14 5 -16 1 -11 -22 3 -15 2 -34 -4
-42 -8 -12 -10 -9 -10 13 0 15 -3 26 -7 26 -20 -3 -24 2 -13 16 9 11 9 15 1
15 -7 0 -9 5 -6 10 3 6 -1 10 -9 10 -10 0 -13 6 -9 17 4 11 3 14 -5 9 -7 -4
-22 -4 -34 0 -21 6 -21 7 -2 21 18 15 18 15 -7 9 -23 -5 -28 -2 -35 22 -4 15
-7 30 -6 35 1 4 -11 7 -27 7 -24 0 -29 -5 -35 -32z m48 -13 c3 -8 1 -15 -4
-15 -6 0 -10 7 -10 15 0 8 2 15 4 15 2 0 6 -7 10 -15z m36 -45 c0 -5 -5 -10
-11 -10 -5 0 -7 5 -4 10 3 6 8 10 11 10 2 0 4 -4 4 -10z m5 -40 c3 -5 1 -10
-4 -10 -6 0 -11 5 -11 10 0 6 2 10 4 10 3 0 8 -4 11 -10z m-5 -65 c7 -9 8 -15
2 -15 -5 0 -12 7 -16 15 -3 8 -4 15 -2 15 2 0 9 -7 16 -15z m-145 -25 c3 -5 1
-10 -4 -10 -6 0 -11 5 -11 10 0 6 2 10 4 10 3 0 8 -4 11 -10z m99 -25 c3 -8
15 -15 27 -15 28 0 22 -5 -14 -14 -18 -4 -26 -3 -23 3 4 5 2 12 -4 16 -5 3
-10 10 -10 16 0 15 17 10 24 -6z m-224 -6 c0 -8 6 -7 17 2 14 12 16 12 11 -1
-3 -8 -15 -14 -27 -13 -11 2 -21 -2 -21 -9 0 -6 -2 -9 -5 -6 -8 7 5 38 16 38
5 0 9 -5 9 -11z m645 -9 c3 -5 1 -10 -4 -10 -6 0 -11 5 -11 10 0 6 2 10 4 10
3 0 8 -4 11 -10z m-109 -25 c-3 -9 0 -15 9 -15 8 0 15 -4 15 -9 0 -4 -11 -6
-24 -4 -22 4 -23 8 -13 24 14 23 21 25 13 4z m144 11 c0 -3 -4 -8 -10 -11 -5
-3 -10 -1 -10 4 0 6 5 11 10 11 6 0 10 -2 10 -4z m-483 -26 c-1 -11 -7 -22
-15 -25 -7 -2 -10 -1 -7 4 3 5 0 13 -6 17 -8 4 -7 9 2 15 21 13 28 11 26 -11z
m-90 -26 c-3 -3 -12 -4 -19 -1 -8 3 -5 6 6 6 11 1 17 -2 13 -5z m233 -24 c0
-5 -5 -10 -11 -10 -5 0 -7 5 -4 10 3 6 8 10 11 10 2 0 4 -4 4 -10z m100 -104
c0 -2 -7 -6 -15 -10 -8 -3 -15 -1 -15 4 0 6 7 10 15 10 8 0 15 -2 15 -4z m-43
-12 c-3 -3 -12 -4 -19 -1 -8 3 -5 6 6 6 11 1 17 -2 13 -5z m90 -30 c-3 -3 -12
-4 -19 -1 -8 3 -5 6 6 6 11 1 17 -2 13 -5z m-89 -36 c-4 -41 -28 -50 -28 -10
0 16 3 32 7 35 15 16 24 5 21 -25z m37 14 c-3 -3 -11 0 -18 7 -9 10 -8 11 6 5
10 -3 15 -9 12 -12z m-602 1 c-7 -2 -21 -2 -30 0 -10 3 -4 5 12 5 17 0 24 -2
18 -5z m177 -3 c0 -5 -5 -10 -11 -10 -5 0 -7 5 -4 10 3 6 8 10 11 10 2 0 4 -4
4 -10z m-55 -10 c3 -5 -1 -10 -9 -10 -9 0 -16 5 -16 10 0 6 4 10 9 10 6 0 13
-4 16 -10z m-65 -9 c0 -11 -79 -25 -106 -19 -15 4 33 16 99 27 4 0 7 -3 7 -8z
m265 -11 c-3 -5 -12 -7 -20 -3 -21 7 -19 13 6 13 11 0 18 -4 14 -10z m-572 -7
c-7 -2 -21 -2 -30 0 -10 3 -4 5 12 5 17 0 24 -2 18 -5z m-70 -10 c-7 -2 -19
-2 -25 0 -7 3 -2 5 12 5 14 0 19 -2 13 -5z m452 -3 c3 -5 -1 -10 -10 -10 -9 0
-13 5 -10 10 3 6 8 10 10 10 2 0 7 -4 10 -10z m42 4 c-3 -3 -12 -4 -19 -1 -8
3 -5 6 6 6 11 1 17 -2 13 -5z m-342 -14 c-27 -12 -35 -12 -35 0 0 6 12 10 28
9 24 0 25 -1 7 -9z m-69 -9 c-3 -4 -36 -11 -74 -15 -38 -4 -136 -18 -217 -31
-82 -13 -151 -22 -153 -20 -5 4 66 18 253 48 171 28 198 31 191 18z m289 -1
c-28 -12 -55 -12 -55 0 0 6 17 10 38 9 30 0 33 -2 17 -9z m1645 -6 c0 -8 -5
-12 -10 -9 -6 4 -8 11 -5 16 9 14 15 11 15 -7z m-60 -11 c0 -8 -12 -13 -30
-13 -18 0 -30 5 -30 13 0 8 12 14 30 14 18 0 30 -6 30 -14z m-1740 -2 c-22
-12 -100 -21 -100 -11 0 8 35 15 90 18 18 1 21 -1 10 -7z m670 -1 c0 -5 -7
-10 -15 -10 -8 0 -15 5 -15 10 0 6 7 10 15 10 8 0 15 -4 15 -10z m-800 -35 c0
-19 -6 -25 -32 -30 -35 -5 -411 -55 -421 -55 -3 0 -5 9 -4 20 2 25 -5 23 232
59 240 37 225 36 225 6z m309 20 c-3 -2 -54 -11 -115 -20 -60 -8 -122 -18
-139 -20 -18 -3 -26 -2 -20 4 6 5 60 16 120 24 123 16 161 19 154 12z m1521
-26 c0 -5 -4 -9 -10 -9 -5 0 -10 7 -10 16 0 8 5 12 10 9 6 -3 10 -10 10 -16z
m-1035 -9 c-3 -5 -10 -10 -16 -10 -5 0 -9 5 -9 10 0 6 7 10 16 10 8 0 12 -4 9
-10z m985 0 c0 -5 -9 -10 -21 -10 -11 0 -17 5 -14 10 3 6 13 10 21 10 8 0 14
-4 14 -10z m-815 -29 c13 -5 -3 -10 -50 -14 -147 -14 -200 -4 -64 12 96 11 91
11 114 2z m-970 -20 c-6 -5 -93 -18 -195 -30 -102 -12 -201 -24 -220 -28 -20
-3 -31 -2 -27 3 5 5 95 21 200 35 215 30 255 33 242 20z m1243 -34 c2 -16 -2
-29 -10 -32 -16 -6 -365 -35 -419 -35 -37 0 -39 2 -39 30 0 25 4 30 33 35 68
12 315 33 372 31 58 -1 60 -2 63 -29z m489 16 c4 -11 -82 -24 -104 -16 -28 11
1 25 38 19 25 -4 39 -2 39 5 0 13 22 7 27 -8z m-1727 -21 c0 -9 -420 -57 -441
-50 -7 2 75 14 182 27 107 12 201 24 209 25 30 7 50 6 50 -2z m1553 -2 c-58
-13 -273 -23 -273 -11 0 12 57 17 200 18 69 1 94 -2 73 -7z m267 -52 c1 -30 2
-31 14 -15 12 16 14 16 20 1 11 -29 6 -51 -11 -51 -10 0 -21 4 -24 9 -3 5
-111 2 -253 -7 -136 -8 -256 -15 -267 -15 -17 0 -20 6 -17 38 l3 37 210 16
c116 9 236 17 268 18 l57 1 0 -32z m-1825 14 c-11 -9 -436 -55 -443 -48 -6 7
47 15 243 35 225 24 211 23 200 13z m1245 -32 c0 -5 -1 -10 -2 -10 -52 -6
-405 -30 -433 -29 -132 2 187 40 398 48 20 0 37 -3 37 -9z m-1240 -28 l0 -28
-152 -13 c-84 -6 -186 -15 -225 -18 -73 -6 -73 -6 -73 19 l0 25 198 20 c272
28 252 28 252 -5z m1910 18 c-20 -13 -40 -13 -40 0 0 6 12 10 28 10 21 0 24
-2 12 -10z m87 -27 c6 -14 7 -15 12 -1 4 11 12 13 26 7 17 -6 17 -8 3 -8 -10
-1 -18 -5 -18 -11 0 -5 -8 -10 -17 -10 -10 0 -25 -5 -33 -11 -13 -10 -13 -10
0 -6 8 2 24 1 35 -4 16 -6 12 -8 -16 -8 -71 -2 -159 -14 -159 -22 0 -5 19 -9
42 -9 41 0 42 -1 24 -17 -13 -13 -20 -15 -23 -5 -5 14 -50 16 -55 2 -3 -10
-525 -36 -535 -26 -15 15 23 19 268 29 204 8 262 13 266 24 3 8 3 16 0 19 -4
5 -255 -7 -459 -21 -66 -5 -78 -3 -78 10 0 12 13 15 58 16 31 0 149 6 262 13
169 10 207 10 216 -1 11 -13 85 -18 97 -7 3 3 2 17 -3 29 -10 27 -2 33 48 34
22 1 35 -5 39 -16z m-759 -15 c-3 -9 -69 -17 -232 -26 -203 -13 -249 -12 -235
2 3 3 305 27 447 35 15 1 22 -4 20 -11z m-1238 -37 c0 -4 -78 -13 -172 -20
-95 -6 -198 -14 -228 -17 -30 -3 -51 -2 -47 3 5 4 97 15 205 24 255 21 242 20
242 10z m1239 -25 c-8 -8 -459 -29 -466 -22 -4 3 -4 8 -2 11 3 2 106 10 230
18 197 11 255 10 238 -7z m-1239 -15 c0 -9 -109 -18 -315 -25 -192 -7 -148 2
86 18 107 7 202 14 212 15 9 0 17 -3 17 -8z m1240 -54 l0 -34 -137 -6 c-75 -4
-180 -7 -235 -7 l-98 0 0 30 c0 27 3 30 33 31 17 1 95 5 172 8 77 4 168 8 203
9 l62 2 0 -33z m-1240 14 c0 -5 -44 -12 -97 -15 -239 -14 -357 -18 -350 -10 7
7 139 17 420 33 15 0 27 -3 27 -8z m0 -56 c0 -14 -6 -28 -12 -30 -7 -2 -109
-5 -226 -7 -194 -3 -212 -2 -212 14 0 9 3 19 8 21 4 3 97 8 207 12 110 4 202
9 204 11 14 13 31 1 31 -21z m1240 -33 c0 -12 -160 -22 -332 -22 -174 0 -186
18 -15 23 281 7 347 7 347 -1z m-1240 -32 c0 -7 -76 -9 -227 -8 -175 1 -203 3
-118 7 222 12 345 12 345 1z m1240 -25 c0 -13 -33 -15 -235 -15 -146 0 -235 4
-235 10 0 5 59 11 143 13 78 1 184 4 235 5 76 2 92 -1 92 -13z m-1240 -15 c0
-6 -81 -9 -227 -8 -151 1 -202 4 -153 8 128 11 380 11 380 0z m0 -40 c0 -6
-82 -10 -226 -10 -147 0 -223 3 -219 10 4 6 90 10 226 10 139 0 219 -4 219
-10z m1238 -1 c-2 -6 -7 -10 -11 -10 -4 1 -108 1 -232 1 -143 0 -225 4 -225
10 0 6 85 10 236 10 164 0 235 -3 232 -11z m-1238 -62 l0 -30 -137 6 c-75 4
-176 7 -225 7 -88 0 -88 0 -88 26 l0 25 225 -2 225 -2 0 -30z m1238 -21 l3
-39 -113 6 c-62 4 -168 7 -235 7 l-123 0 0 35 0 35 233 -2 232 -3 3 -39z m345
35 c151 -1 237 -5 237 -11 0 -6 -97 -10 -270 -10 -148 0 -270 4 -270 8 0 16
11 20 38 17 15 -2 134 -4 265 -4z m-1716 -61 c83 0 133 -4 133 -10 0 -13 -418
-1 -440 12 -10 6 19 7 79 4 52 -3 154 -6 228 -6z m1970 -6 c75 -14 14 -19
-154 -13 -98 4 -229 7 -290 8 -78 1 -113 5 -113 13 0 8 67 9 263 4 144 -3 277
-9 294 -12z m-1904 -34 c39 0 67 -4 67 -10 0 -12 -274 -4 -390 11 -45 5 -15 7
95 4 88 -3 190 -5 228 -5z m1210 3 c53 -3 97 -10 97 -15 0 -11 -425 1 -455 13
-25 10 222 11 358 2z m-1335 -39 c116 -4 192 -11 192 -17 0 -6 -35 -8 -97 -4
-54 4 -155 10 -225 13 -71 4 -128 11 -128 17 0 5 14 7 33 4 17 -4 119 -9 225
-13z m1380 -13 c31 -1 52 -5 52 -12 0 -9 -54 -10 -202 -5 -112 4 -219 10 -238
13 -71 13 8 18 173 12 89 -4 186 -7 215 -8z m-1388 -26 c190 -8 200 -10 200
-42 0 -26 -1 -26 -62 -20 -35 4 -136 12 -225 18 -163 13 -163 13 -163 37 0 23
2 24 53 18 28 -3 117 -8 197 -11z m1248 -20 c159 -6 206 -14 190 -30 -5 -5
-387 14 -435 21 -51 8 -39 24 15 20 26 -3 129 -8 230 -11z m882 -14 c0 -5 -7
-11 -15 -15 -15 -5 -20 5 -8 17 9 10 23 9 23 -2z m-342 -13 c188 -9 242 -14
242 -25 0 -16 10 -16 -290 2 -135 8 -248 15 -252 15 -5 0 -8 5 -8 10 0 13 15
13 308 -2z m-1788 -29 c177 -11 207 -15 197 -25 -8 -8 -409 26 -432 37 -15 7
-10 8 20 4 22 -2 119 -9 215 -16z m1185 6 c61 -3 143 -8 183 -11 l72 -6 0 -34
c0 -33 -2 -34 -37 -34 -21 0 -119 7 -218 15 -99 8 -188 15 -197 15 -14 0 -18
8 -18 35 l0 35 53 -5 c28 -2 102 -6 162 -10z m-1362 -32 c-13 -2 -33 -2 -45 0
-13 2 -3 4 22 4 25 0 35 -2 23 -4z m230 -15 c81 -7 147 -16 147 -20 0 -5 -24
-5 -52 -2 -29 3 -109 12 -178 19 -163 16 -107 19 83 3z m-33 -34 c170 -16 188
-19 179 -29 -7 -7 -439 41 -447 50 -4 4 16 5 43 2 28 -4 129 -14 225 -23z
m1190 -20 c189 -14 245 -24 229 -37 -2 -2 -39 -1 -81 4 -43 4 -144 12 -225 19
-81 6 -152 15 -157 21 -13 12 -18 12 234 -7z m-1175 -22 l160 -17 3 -26 c3
-23 0 -26 -20 -23 -13 2 -99 13 -193 24 -241 29 -235 28 -235 51 0 19 4 20 63
14 34 -4 134 -14 222 -23z m1232 -33 c138 -11 186 -20 173 -32 -7 -7 -461 41
-469 49 -6 7 11 6 296 -17z m-1282 -36 c116 -15 203 -29 194 -31 -18 -3 -411
47 -418 54 -7 7 7 5 224 -23z m1250 -9 c175 -15 218 -24 203 -39 -5 -6 -361
28 -435 40 -46 8 -41 25 5 20 20 -2 123 -12 227 -21z m-1227 -30 c111 -16 202
-32 202 -37 0 -5 -15 -7 -32 -4 -18 2 -114 17 -213 31 -99 15 -189 31 -200 37
-17 8 -15 9 10 5 17 -2 121 -17 233 -32z m1230 -24 c100 -11 187 -20 192 -20
6 0 10 -16 10 -36 l0 -36 -57 6 c-32 4 -89 11 -128 16 -38 5 -108 14 -155 20
-122 16 -130 19 -130 44 0 13 3 25 6 28 6 7 6 7 262 -22z m-1053 -41 c30 -12
-1 -10 -80 6 l-70 14 65 -6 c36 -3 74 -9 85 -14z m-302 4 c-7 -2 -21 -2 -30 0
-10 3 -4 5 12 5 17 0 24 -2 18 -5z m60 -10 c-7 -2 -21 -2 -30 0 -10 3 -4 5 12
5 17 0 24 -2 18 -5z m60 -10 c-7 -2 -21 -2 -30 0 -10 3 -4 5 12 5 17 0 24 -2
18 -5z m322 -2 l40 -9 -35 0 c-19 0 -46 4 -60 8 -20 6 -21 8 -5 8 11 1 38 -3
60 -7z m251 -36 c93 -14 188 -28 212 -32 23 -3 42 -9 42 -13 0 -4 -19 -4 -42
1 -24 4 -110 17 -193 29 -172 25 -239 37 -209 39 11 1 97 -10 190 -24z m618 0
c211 -28 250 -35 243 -42 -5 -5 -30 -2 -292 32 -117 15 -200 32 -161 34 10 1
105 -10 210 -24z m26 -51 c184 -24 233 -35 219 -48 -2 -2 -105 11 -229 30
-124 18 -228 33 -232 34 -5 0 -8 5 -8 10 0 6 10 8 23 6 12 -3 114 -17 227 -32z
m38 -51 c100 -14 182 -30 182 -35 0 -4 -12 -5 -27 -2 -16 2 -113 18 -217 34
-104 16 -192 32 -195 36 -3 4 12 4 34 1 22 -4 122 -19 223 -34z"/>
<path d="M3200 2860 c-12 -8 -12 -10 5 -9 11 0 29 4 40 9 18 8 18 9 -5 9 -14
0 -32 -4 -40 -9z"/>
<path d="M3083 2843 c-13 -2 -23 -9 -23 -15 0 -5 7 -7 16 -4 9 3 24 6 35 6 10
0 19 5 19 10 0 10 -8 11 -47 3z"/>
<path d="M2530 2830 c-17 -10 -13 -17 15 -22 12 -2 20 3 20 11 0 18 -16 23
-35 11z"/>
<path d="M2968 2823 c-10 -2 -18 -8 -18 -13 0 -5 14 -4 30 1 45 16 36 25 -12
12z"/>
<path d="M3165 2820 c-34 -9 -18 -13 40 -12 22 1 34 -1 27 -4 -6 -3 -9 -11 -6
-17 5 -9 4 -9 -6 0 -13 12 -40 7 -52 -11 -11 -17 3 -28 20 -14 13 11 15 10 10
-9 -7 -28 7 -38 47 -34 49 4 71 51 24 51 -14 0 -19 7 -19 30 0 26 -3 30 -27
29 -16 -1 -41 -5 -58 -9z m109 -69 c3 -5 -8 -11 -24 -13 -32 -5 -42 7 -12 15
28 8 31 7 36 -2z"/>
<path d="M3082 2808 c-18 -18 -15 -28 8 -28 10 0 24 9 30 20 9 17 8 20 -8 20
-10 0 -23 -5 -30 -12z m23 -8 c-3 -5 -12 -10 -18 -10 -7 0 -6 4 3 10 19 12 23
12 15 0z"/>
<path d="M2988 2803 c-10 -2 -18 -13 -18 -24 0 -14 -7 -19 -25 -19 -18 0 -23
-4 -19 -15 4 -8 13 -15 22 -15 13 0 14 -2 3 -12 -11 -10 -14 -10 -18 0 -5 13
-37 15 -93 6 -24 -4 -39 -14 -47 -30 -11 -23 -10 -23 26 -20 20 1 43 6 51 9
27 11 134 27 195 28 63 2 85 11 85 37 0 12 -3 13 -12 4 -7 -7 -27 -12 -45 -12
-18 0 -33 -4 -33 -10 0 -5 -11 -10 -23 -10 -22 0 -24 4 -22 45 0 25 -1 44 -4
44 -4 -1 -14 -3 -23 -6z"/>
<path d="M1460 2780 c0 -23 4 -24 32 -9 17 9 18 13 7 20 -23 15 -39 10 -39
-11z"/>
<path d="M2920 2790 c0 -5 5 -10 10 -10 6 0 10 5 10 10 0 6 -4 10 -10 10 -5 0
-10 -4 -10 -10z"/>
<path d="M2778 2783 c7 -3 16 -2 19 1 4 3 -2 6 -13 5 -11 0 -14 -3 -6 -6z"/>
<path d="M1650 2762 c0 -12 7 -18 20 -17 27 2 37 14 20 25 -24 15 -40 12 -40
-8z"/>
<path d="M2828 2773 c7 -3 16 -2 19 1 4 3 -2 6 -13 5 -11 0 -14 -3 -6 -6z"/>
<path d="M3030 2760 c0 -13 11 -13 30 0 12 8 11 10 -7 10 -13 0 -23 -4 -23
-10z"/>
<path d="M1490 2749 c0 -5 5 -7 10 -4 6 3 10 8 10 11 0 2 -4 4 -10 4 -5 0 -10
-5 -10 -11z"/>
<path d="M2606 2751 c-3 -4 11 -5 30 -3 31 4 34 2 34 -23 0 -27 1 -27 42 -21
50 8 58 14 38 26 -13 8 -12 10 2 10 9 0 19 4 23 9 3 6 -29 10 -80 10 -47 -1
-87 -4 -89 -8z"/>
<path d="M925 2720 c3 -5 0 -10 -7 -10 -8 0 -7 -6 5 -17 12 -12 20 -14 27 -7
14 14 2 44 -17 44 -8 0 -11 -4 -8 -10z"/>
<path d="M2570 2720 c-25 -5 -54 -6 -65 -4 -17 4 -17 3 -5 -6 13 -9 12 -12 -5
-26 -19 -15 -19 -15 10 -8 17 3 35 13 42 21 17 22 43 9 36 -16 -4 -17 -1 -21
17 -21 17 0 20 -4 15 -20 -5 -16 -2 -20 17 -20 28 0 71 28 63 41 -4 5 -15 9
-26 9 -14 0 -19 7 -19 30 0 33 -2 33 -80 20z m70 -20 c0 -5 -9 -10 -20 -10
-11 0 -20 5 -20 10 0 6 9 10 20 10 11 0 20 -4 20 -10z m5 -50 c3 -5 1 -10 -4
-10 -6 0 -11 5 -11 10 0 6 2 10 4 10 3 0 8 -4 11 -10z m30 0 c3 -5 1 -10 -4
-10 -6 0 -11 5 -11 10 0 6 2 10 4 10 3 0 8 -4 11 -10z"/>
<path d="M1015 2710 c-3 -5 1 -10 9 -10 8 0 18 5 21 10 3 6 -1 10 -9 10 -8 0
-18 -4 -21 -10z"/>
<path d="M1650 2710 c0 -5 5 -10 10 -10 6 0 10 5 10 10 0 6 -4 10 -10 10 -5 0
-10 -4 -10 -10z"/>
<path d="M3097 2682 c-22 -4 -22 -22 0 -22 28 0 4 -14 -30 -17 -18 -1 -43 -4
-57 -6 -14 -3 -36 -5 -50 -6 -23 -2 -23 -3 -5 -11 21 -8 16 -12 -30 -24 -11
-3 -5 -4 13 -2 29 2 32 0 32 -25 0 -31 -3 -32 -123 -44 -45 -4 -58 -2 -55 7 3
8 18 12 41 10 24 -2 37 1 37 8 0 9 -19 10 -72 5 -40 -4 -92 -8 -115 -9 -27 -1
-43 -6 -43 -13 0 -7 -7 -13 -15 -13 -8 0 -15 -4 -15 -10 0 -5 13 -10 30 -10
24 0 28 -3 23 -17 -4 -10 -11 -21 -17 -25 -7 -5 -4 -8 7 -8 9 0 17 4 17 9 0
17 40 19 50 3 8 -14 9 -12 10 11 0 25 -8 31 -37 28 -21 -3 -24 17 -4 24 22 7
68 -31 63 -52 -2 -9 9 -13 33 -13 19 0 35 5 35 10 0 6 9 10 20 10 11 0 20 -4
20 -10 0 -5 -4 -10 -10 -10 -5 0 -10 -9 -10 -20 0 -22 7 -25 29 -11 7 5 11 13
7 19 -8 13 14 30 44 32 39 3 52 1 46 -9 -12 -19 27 -20 110 -4 60 12 80 19 69
25 -8 5 -13 14 -9 19 4 7 -9 8 -35 4 -40 -6 -41 -5 -41 22 0 15 -3 39 -7 51
-5 21 -10 23 -39 17 -19 -3 -34 -2 -34 3 0 11 49 22 101 22 44 0 91 19 82 33
-3 5 1 13 8 18 13 9 -31 9 -74 1z m-207 -186 c0 -9 -8 -12 -25 -8 -14 2 -25 8
-25 13 0 5 11 9 25 9 14 0 25 -6 25 -14z m205 -6 c-16 -4 -39 -8 -50 -9 -16
-1 -17 1 -5 9 8 5 31 9 50 9 l35 -1 -30 -8z m-80 -10 c-3 -5 -11 -10 -16 -10
-6 0 -7 5 -4 10 3 6 11 10 16 10 6 0 7 -4 4 -10z"/>
<path d="M953 2665 c-3 -9 -3 -18 0 -21 9 -9 27 6 27 22 0 19 -19 18 -27 -1z"/>
<path d="M2837 2639 c-10 -6 -24 -8 -31 -6 -7 3 -47 -3 -90 -13 -43 -11 -84
-16 -92 -13 -18 7 -18 -11 0 -26 12 -10 53 -15 100 -12 15 1 16 4 6 16 -10 12
-8 16 15 25 34 13 58 13 50 0 -3 -5 1 -10 9 -10 9 0 16 -7 16 -15 0 -16 20
-19 58 -9 36 10 25 23 -15 18 -29 -4 -34 -3 -23 5 8 6 29 11 47 11 17 0 35 5
38 10 4 6 -7 10 -25 10 -18 0 -29 4 -25 10 8 13 -15 12 -38 -1z m-127 -49 c0
-5 -5 -10 -11 -10 -5 0 -7 5 -4 10 3 6 8 10 11 10 2 0 4 -4 4 -10z m-33 -6
c-3 -3 -12 -4 -19 -1 -8 3 -5 6 6 6 11 1 17 -2 13 -5z"/>
<path d="M2527 2594 c-3 -3 -3 -12 0 -20 4 -10 -1 -13 -17 -12 -13 2 -25 -3
-27 -9 -6 -16 35 -17 71 -3 34 13 36 50 3 50 -13 0 -26 -3 -30 -6z"/>
<path d="M3110 2564 l-45 -14 40 5 c22 3 48 5 58 5 10 0 15 5 12 10 -7 12 -6
12 -65 -6z"/>
<path d="M3330 2540 c0 -5 5 -10 10 -10 6 0 10 5 10 10 0 6 -4 10 -10 10 -5 0
-10 -4 -10 -10z"/>
<path d="M3240 2532 c0 -5 9 -12 21 -15 13 -3 19 -1 16 6 -5 15 -37 22 -37 9z"/>
<path d="M3154 2518 c-5 -8 -2 -9 10 -5 14 6 16 3 11 -13 -6 -18 -2 -20 34
-20 23 0 41 5 41 10 0 6 -11 10 -24 10 -28 0 -43 16 -24 23 7 3 1 6 -14 6 -15
1 -30 -4 -34 -11z"/>
<path d="M2560 2490 c-24 -8 -23 -8 8 -9 20 -1 31 3 27 9 -3 6 -7 10 -8 9 -1
-1 -13 -5 -27 -9z"/>
<path d="M3305 2480 c-18 -8 -17 -9 8 -9 15 -1 27 4 27 9 0 12 -8 12 -35 0z"/>
<path d="M3445 2470 c-3 -5 -1 -10 4 -10 6 0 11 5 11 10 0 6 -2 10 -4 10 -3 0
-8 -4 -11 -10z"/>
<path d="M2575 2450 c-4 -6 6 -10 22 -10 22 0 25 2 13 10 -19 12 -27 12 -35 0z"/>
<path d="M3236 2443 c-11 -11 -6 -23 9 -23 8 0 15 4 15 9 0 13 -16 22 -24 14z"/>
<path d="M700 2431 c0 -5 7 -12 16 -15 24 -9 28 -7 14 9 -14 17 -30 20 -30 6z"/>
<path d="M3060 2425 c0 -8 4 -15 10 -15 5 0 7 7 4 15 -4 8 -8 15 -10 15 -2 0
-4 -7 -4 -15z"/>
<path d="M3153 2433 c-18 -2 -33 -9 -33 -15 0 -6 10 -8 23 -4 12 3 36 6 52 6
23 0 27 3 15 10 -8 5 -17 9 -20 8 -3 -1 -20 -3 -37 -5z"/>
<path d="M2585 2420 c-3 -4 11 -10 30 -12 22 -2 35 0 35 7 0 14 -57 18 -65 5z"/>
<path d="M2990 2410 l-25 -8 27 -1 c15 -1 30 4 33 9 7 11 0 11 -35 0z"/>
<path d="M2698 2403 c7 -3 16 -2 19 1 4 3 -2 6 -13 5 -11 0 -14 -3 -6 -6z"/>
<path d="M2635 2370 c-4 -6 3 -10 14 -10 25 0 27 6 6 13 -8 4 -17 2 -20 -3z"/>
<path d="M3288 2373 c6 -2 18 -2 25 0 6 3 1 5 -13 5 -14 0 -19 -2 -12 -5z"/>
<path d="M2485 2360 c-3 -5 1 -10 10 -10 9 0 13 5 10 10 -3 6 -8 10 -10 10 -2
0 -7 -4 -10 -10z"/>
<path d="M2546 2357 c-15 -11 -12 -12 23 -9 23 2 41 8 41 13 0 13 -44 11 -64
-4z"/>
<path d="M3280 2308 c0 -11 22 -10 40 2 11 8 9 9 -12 8 -16 -1 -28 -6 -28 -10z"/>
<path d="M2678 2253 c7 -3 16 -2 19 1 4 3 -2 6 -13 5 -11 0 -14 -3 -6 -6z"/>
<path d="M3095 2140 c3 -5 10 -10 16 -10 5 0 9 5 9 10 0 6 -7 10 -16 10 -8 0
-12 -4 -9 -10z"/>
<path d="M3260 2130 c-12 -8 -10 -10 8 -10 13 0 20 4 17 10 -7 12 -6 12 -25 0z"/>
<path d="M2520 2100 c0 -5 4 -10 9 -10 6 0 13 5 16 10 3 6 -1 10 -9 10 -9 0
-16 -4 -16 -10z"/>
<path d="M2958 2043 c7 -3 16 -2 19 1 4 3 -2 6 -13 5 -11 0 -14 -3 -6 -6z"/>
<path d="M3290 2010 c0 -5 6 -10 14 -10 8 0 18 5 21 10 3 6 -3 10 -14 10 -12
0 -21 -4 -21 -10z"/>
<path d="M2931 1998 c-1 -11 -6 -15 -16 -12 -9 4 -15 0 -15 -10 0 -9 7 -16 15
-16 18 0 29 23 22 42 -4 8 -6 7 -6 -4z"/>
<path d="M3250 1960 c0 -5 16 -10 35 -10 19 0 35 5 35 10 0 6 -16 10 -35 10
-19 0 -35 -4 -35 -10z"/>
<path d="M2727 1917 c4 -19 9 -22 49 -19 33 3 44 8 44 21 0 12 -11 17 -49 18
-45 2 -48 1 -44 -20z"/>
<path d="M3060 1909 c0 -36 13 -59 34 -59 26 0 53 16 43 26 -4 4 -2 13 4 21 9
10 5 13 -19 13 -17 0 -37 3 -46 6 -10 4 -16 1 -16 -7z"/>
<path d="M2950 1900 c0 -5 8 -11 18 -13 9 -3 3 -5 -13 -6 -27 -1 -31 -5 -30
-28 0 -27 -1 -28 -59 -28 -52 0 -60 -3 -67 -22 -8 -21 -5 -23 24 -24 18 -1 35
-1 39 0 52 8 176 9 214 2 54 -10 87 0 77 24 -3 10 -10 12 -17 7 -16 -12 -126
-13 -126 -1 0 5 7 12 15 15 14 6 13 8 -1 19 -22 16 -12 47 13 39 14 -4 15 -4
4 4 -7 5 -22 7 -32 5 -10 -3 -19 -1 -19 4 0 5 -9 9 -20 10 -11 1 -20 -2 -20
-7z m20 -40 c0 -5 -7 -10 -15 -10 -8 0 -15 5 -15 10 0 6 7 10 15 10 8 0 15 -4
15 -10z m-15 -50 c3 -5 -1 -10 -10 -10 -9 0 -13 5 -10 10 3 6 8 10 10 10 2 0
7 -4 10 -10z"/>
<path d="M3198 1903 c12 -2 30 -2 40 0 9 3 -1 5 -23 4 -22 0 -30 -2 -17 -4z"/>
<path d="M2490 1886 c0 -9 5 -16 10 -16 19 0 10 -31 -12 -40 -19 -8 -16 -9 12
-4 41 7 56 18 63 44 4 14 0 20 -11 20 -10 0 -27 3 -39 6 -17 5 -23 2 -23 -10z"/>
<path d="M3265 1873 c3 -16 11 -30 16 -31 11 -4 -8 -32 -22 -32 -4 0 -9 15
-11 32 -3 31 -5 33 -50 35 -27 1 -48 -2 -48 -7 0 -6 5 -10 10 -10 6 0 8 -11 4
-25 -5 -21 -3 -25 15 -25 16 0 21 -6 21 -25 0 -22 4 -25 39 -23 38 1 72 30 51
43 -22 13 22 39 62 36 36 -2 39 0 33 18 -7 23 7 29 90 34 28 2 -10 4 -84 5
l-133 2 7 -27z m-39 -22 c-3 -5 -15 -7 -26 -4 -28 7 -25 13 6 13 14 0 23 -4
20 -9z m38 -59 c2 -4 -6 -9 -20 -10 -13 -1 -24 3 -24 8 0 12 37 14 44 2z"/>
<path d="M2613 1883 c9 -2 25 -2 35 0 9 3 1 5 -18 5 -19 0 -27 -2 -17 -5z"/>
<path d="M2666 1872 c-3 -5 1 -18 9 -28 18 -26 85 -21 92 7 4 14 17 19 57 22
28 2 5 4 -51 5 -56 1 -104 -2 -107 -6z"/>
<path d="M2575 1861 c-3 -2 0 -10 6 -17 13 -16 4 -48 -10 -39 -5 3 -12 1 -15
-4 -4 -6 -18 -6 -36 -1 -19 5 -28 5 -25 -1 4 -5 -2 -9 -11 -9 -30 0 -2 -17 39
-23 30 -5 40 -2 50 14 15 24 49 26 45 2 -2 -14 5 -19 33 -21 41 -3 63 22 29
33 -10 3 -21 19 -25 34 -5 24 -12 30 -41 33 -19 2 -37 2 -39 -1z m65 -31 c6
-11 8 -20 5 -20 -3 0 -15 9 -27 20 -18 17 -19 20 -5 20 9 0 21 -9 27 -20z m30
-49 c0 -10 -26 -9 -36 2 -4 4 2 7 14 7 12 0 22 -4 22 -9z"/>
<path d="M2725 1780 c-3 -6 1 -7 9 -4 18 7 21 14 7 14 -6 0 -13 -4 -16 -10z"/>
<path d="M3318 1783 c6 -2 18 -2 25 0 6 3 1 5 -13 5 -14 0 -19 -2 -12 -5z"/>
<path d="M2859 1753 c-1 -4 -1 -11 -1 -14 1 -4 -15 -3 -35 1 -55 13 -213 0
-206 -16 6 -17 93 -35 113 -24 10 6 11 9 3 10 -7 0 -13 5 -13 10 0 6 18 10 41
10 22 0 38 -4 34 -9 -7 -13 23 -21 65 -16 19 2 43 4 53 4 10 1 15 6 12 11 -4
6 -10 8 -15 5 -12 -7 -41 5 -35 15 3 5 1 11 -5 15 -5 3 -11 3 -11 -2z"/>
<path d="M3490 1750 c0 -5 7 -10 15 -10 8 0 15 5 15 10 0 6 -7 10 -15 10 -8 0
-15 -4 -15 -10z"/>
<path d="M3565 1750 c-3 -5 -1 -10 4 -10 6 0 11 5 11 10 0 6 -2 10 -4 10 -3 0
-8 -4 -11 -10z"/>
<path d="M3605 1750 c-3 -5 -2 -10 4 -10 5 0 13 5 16 10 3 6 2 10 -4 10 -5 0
-13 -4 -16 -10z"/>
<path d="M2990 1739 c0 -5 5 -7 10 -4 6 3 10 8 10 11 0 2 -4 4 -10 4 -5 0 -10
-5 -10 -11z"/>
<path d="M3090 1741 c0 -5 12 -12 28 -14 15 -2 3 -5 -25 -6 -29 0 -53 -5 -53
-11 0 -12 87 -12 115 0 11 5 14 9 6 9 -11 1 -11 4 -1 16 11 13 7 15 -29 15
-22 0 -41 -4 -41 -9z"/>
<path d="M3199 1733 c14 -11 14 -13 -4 -14 -36 -2 59 -18 114 -18 50 -1 53 0
35 14 -17 13 -15 14 36 15 39 0 51 -3 40 -10 -17 -11 -18 -11 95 -12 36 0 65
4 65 8 0 5 -19 9 -42 9 -24 0 -49 6 -57 13 -10 10 -49 12 -156 10 -114 -2
-139 -5 -126 -15z m99 -8 c-10 -11 -48 -14 -48 -4 0 5 12 9 27 9 14 0 24 -2
21 -5z"/>
<path d="M2974 1714 c-9 -4 -9 -14 -1 -39 6 -19 8 -37 5 -40 -14 -15 -188 -9
-188 6 0 7 11 9 27 6 33 -6 53 1 53 19 0 8 16 14 48 17 30 2 21 4 -28 4 -41 0
-67 -1 -57 -4 9 -2 17 -9 17 -14 0 -6 -8 -8 -17 -5 -37 11 -178 9 -201 -3 -27
-14 -21 -26 11 -26 15 0 23 -7 25 -22 2 -13 -2 -23 -8 -23 -6 0 -8 -4 -5 -10
9 -15 25 -12 25 5 0 8 9 15 20 15 11 0 20 -4 20 -10 0 -5 4 -10 9 -10 5 0 8 6
7 13 0 6 3 14 9 17 5 3 10 -4 10 -15 0 -23 47 -34 69 -16 10 8 17 7 26 -4 16
-19 30 -19 30 0 0 8 -6 15 -14 15 -8 0 -18 5 -21 10 -4 6 7 10 24 10 24 0 31
-4 31 -19 0 -15 7 -19 32 -17 21 0 33 -4 33 -12 0 -23 22 -27 137 -25 90 1
117 -2 131 -15 15 -14 17 -14 17 1 0 23 -15 29 -71 29 -40 -1 -50 2 -45 14 4
11 -4 14 -34 14 -35 0 -40 3 -40 24 0 13 -3 38 -6 55 -6 27 -11 31 -43 32 -30
2 -31 3 -8 6 15 2 27 8 27 11 0 9 -39 12 -56 6z m-246 -84 c3 -12 2 -12 -8 -3
-7 6 -19 9 -26 6 -8 -3 -14 0 -14 7 0 16 43 8 48 -10z m377 -70 c14 -6 -1 -8
-47 -7 -37 2 -70 6 -74 10 -10 10 97 7 121 -3z"/>
<path d="M3168 1683 c7 -3 16 -2 19 1 4 3 -2 6 -13 5 -11 0 -14 -3 -6 -6z"/>
<path d="M2542 1634 c10 -9 58 -12 58 -3 0 5 -14 9 -32 9 -17 0 -29 -3 -26 -6z"/>
<path d="M3098 1623 c18 -2 45 -2 60 0 15 2 0 4 -33 4 -33 0 -45 -2 -27 -4z"/>
<path d="M3175 1580 c3 -5 14 -10 23 -10 15 0 15 2 2 10 -20 13 -33 13 -25 0z"/>
<path d="M3250 1570 c19 -13 30 -13 30 0 0 6 -10 10 -22 10 -19 0 -20 -2 -8
-10z"/>
<path d="M2590 1562 c0 -13 53 -23 65 -11 5 5 1 9 -12 9 -12 0 -28 3 -37 6 -9
3 -16 2 -16 -4z"/>
<path d="M2840 1545 c0 -10 10 -15 27 -15 26 0 26 1 7 15 -25 19 -34 19 -34 0z"/>
<path d="M2770 1511 c0 -21 -43 -34 -59 -18 -22 22 -11 -22 12 -47 24 -26 53
-38 52 -21 0 5 -4 10 -10 10 -5 0 -10 4 -10 10 0 5 6 9 13 7 6 -2 12 2 12 8 0
5 12 10 26 10 21 0 25 -4 22 -23 -1 -13 5 -32 15 -41 13 -13 17 -14 17 -4 0 8
-5 19 -12 26 -9 9 -7 12 11 12 17 0 21 -4 16 -19 -4 -14 1 -21 22 -28 33 -10
83 -6 83 8 0 5 -4 9 -10 9 -18 0 -11 18 10 25 31 10 110 -5 110 -21 0 -10 -13
-14 -42 -14 -34 -1 -39 -3 -25 -11 27 -16 20 -29 -15 -30 -27 0 -29 -2 -13 -8
31 -13 145 -13 145 0 0 7 14 8 40 4 34 -6 40 -4 40 10 0 11 -5 15 -14 12 -18
-7 -25 11 -19 45 l5 26 -137 0 c-76 1 -143 6 -149 11 -7 6 -22 8 -34 4 -13 -3
-22 -1 -22 6 0 6 -14 11 -31 11 -28 0 -31 2 -25 25 5 18 2 25 -9 25 -8 0 -15
-8 -15 -19z m150 -91 c0 -5 -7 -10 -15 -10 -8 0 -15 5 -15 10 0 6 7 10 15 10
8 0 15 -4 15 -10z m241 3 c0 -5 2 -18 3 -30 2 -13 -1 -23 -6 -23 -4 0 -8 7 -8
16 0 11 -6 14 -22 10 -13 -3 -17 -3 -10 0 6 3 12 12 12 20 0 14 29 20 31 7z"/>
<path d="M3060 1500 c0 -11 4 -20 9 -20 5 0 7 9 4 20 -3 11 -7 20 -9 20 -2 0
-4 -9 -4 -20z"/>
<path d="M3298 1513 c6 -2 18 -2 25 0 6 3 1 5 -13 5 -14 0 -19 -2 -12 -5z"/>
<path d="M2555 1500 c4 -6 11 -8 16 -5 14 9 11 15 -7 15 -8 0 -12 -5 -9 -10z"/>
<path d="M2595 1500 c3 -5 8 -10 11 -10 2 0 4 5 4 10 0 6 -5 10 -11 10 -5 0
-7 -4 -4 -10z"/>
<path d="M2645 1500 c-3 -5 -1 -10 4 -10 6 0 11 5 11 10 0 6 -2 10 -4 10 -3 0
-8 -4 -11 -10z"/>
<path d="M2988 1483 c7 -3 16 -2 19 1 4 3 -2 6 -13 5 -11 0 -14 -3 -6 -6z"/>
<path d="M3120 1486 c0 -8 71 -12 76 -4 3 4 -13 8 -35 8 -23 0 -41 -2 -41 -4z"/>
<path d="M3240 1476 c0 -9 5 -16 10 -16 6 0 10 4 10 9 0 6 -4 13 -10 16 -5 3
-10 -1 -10 -9z"/>
<path d="M3644 1468 c-3 -4 11 -8 30 -8 20 0 36 2 36 4 0 8 -61 12 -66 4z"/>
<path d="M2475 1460 c4 -6 11 -8 16 -5 14 9 11 15 -7 15 -8 0 -12 -5 -9 -10z"/>
<path d="M3345 1401 c3 -5 -3 -12 -12 -14 -15 -4 -15 -5 -2 -6 9 0 22 6 29 14
10 12 9 15 -4 15 -10 0 -15 -4 -11 -9z"/>
<path d="M3380 1394 c0 -9 5 -14 12 -12 18 6 21 28 4 28 -9 0 -16 -7 -16 -16z"/>
<path d="M2823 1363 c-14 -11 -7 -13 45 -13 34 0 62 4 62 9 0 15 -88 17 -107
4z"/>
<path d="M2670 1350 c0 -6 -17 -8 -42 -4 -32 4 -39 3 -28 -5 8 -6 26 -11 39
-11 16 0 21 -4 17 -15 -4 -13 1 -14 34 -9 26 4 45 2 55 -6 20 -17 9 -33 -15
-20 -10 5 -27 10 -37 9 -25 -1 35 -28 65 -29 17 0 22 6 22 25 0 17 -6 25 -17
25 -20 1 -64 30 -45 30 7 0 12 5 12 10 0 6 -13 10 -30 10 -16 0 -30 -5 -30
-10z"/>
<path d="M2768 1353 c7 -3 16 -2 19 1 4 3 -2 6 -13 5 -11 0 -14 -3 -6 -6z"/>
<path d="M2948 1347 c-7 -7 -22 -18 -33 -25 -17 -10 -12 -11 30 -11 28 1 43 3
34 6 -11 3 -15 11 -12 24 6 22 0 24 -19 6z"/>
<path d="M2480 1341 c0 -5 11 -8 25 -8 14 0 28 3 31 8 3 5 -9 9 -25 9 -17 0
-31 -4 -31 -9z"/>
<path d="M3390 1329 c-46 -4 -90 -4 -97 -2 -7 3 -15 -2 -18 -10 -5 -11 -18
-13 -53 -11 -35 3 -42 2 -27 -5 11 -5 30 -10 42 -10 16 -1 21 -6 17 -16 -5
-12 2 -14 40 -9 30 5 51 2 61 -6 18 -15 9 -34 -14 -25 -29 12 -71 14 -71 5 0
-6 13 -10 29 -10 17 0 33 -4 36 -10 9 -14 37 -12 60 6 17 13 18 16 5 25 -12 9
-12 10 3 5 10 -3 22 -6 27 -6 4 0 10 -9 13 -20 3 -11 13 -20 22 -20 12 0 15 5
10 21 -7 20 -5 21 25 15 18 -3 36 -6 41 -6 5 0 9 -4 9 -10 0 -5 -12 -10 -26
-10 -22 0 -24 -2 -14 -15 18 -21 -9 -29 -70 -21 -40 5 -50 4 -50 -8 0 -11 9
-13 40 -9 27 4 40 2 40 -6 0 -6 10 -16 23 -21 16 -8 9 -9 -29 -4 -30 3 -54 1
-58 -4 -6 -11 103 -27 140 -21 10 2 25 0 32 -5 7 -4 16 -5 19 -2 10 10 -4 18
-39 21 -44 4 -46 5 -23 15 16 7 12 9 -20 11 -27 1 -15 4 35 9 77 7 110 4 110
-10 0 -5 -8 -10 -17 -12 -13 -2 -11 -7 12 -22 25 -16 30 -17 39 -4 6 8 18 17
26 21 11 4 10 6 -5 6 -11 1 -27 6 -35 12 -11 7 -3 8 29 3 31 -4 42 -3 37 5 -4
6 -11 9 -16 6 -6 -4 -20 16 -20 30 0 2 17 5 37 7 20 2 38 8 40 14 2 7 -7 10
-27 8 -24 -3 -30 0 -30 16 0 14 7 20 24 20 13 0 27 -6 29 -12 4 -10 6 -10 6 0
1 6 9 12 19 13 12 0 10 3 -7 10 -14 5 -37 7 -53 4 -23 -5 -28 -12 -28 -36 l0
-29 -75 0 c-70 0 -76 2 -84 24 -9 22 -17 24 -110 30 -56 4 -101 12 -101 17 0
5 -10 9 -22 9 l-22 0 22 16 c19 13 43 15 140 11 136 -6 122 -5 122 -17 0 -5
-9 -10 -19 -10 -32 0 -35 -20 -4 -21 15 0 40 -2 55 -4 15 -2 30 1 33 6 4 5 -1
9 -9 9 -9 0 -16 9 -16 20 0 13 -7 20 -20 20 -11 0 -20 4 -20 8 0 9 -82 9 -200
1z"/>
<path d="M3043 1305 c-3 -9 -3 -19 1 -22 3 -4 6 -1 6 5 0 7 16 12 38 12 27 0
33 3 22 10 -23 15 -60 12 -67 -5z"/>
<path d="M2790 1303 c0 -8 36 -43 45 -43 2 0 2 7 -1 15 -4 10 0 15 14 15 30 0
53 -11 46 -21 -3 -5 -10 -7 -15 -3 -6 3 -9 -2 -7 -12 3 -16 -5 -19 -49 -22
-29 -2 -53 -7 -53 -12 0 -5 13 -7 30 -4 17 4 36 2 43 -5 8 -6 17 -8 21 -4 4 4
48 6 98 5 70 -1 89 1 80 10 -19 19 -14 28 17 28 29 0 37 19 16 37 -4 4 -5 3
-2 -3 8 -14 -36 -24 -109 -24 -47 0 -54 2 -54 20 0 17 -7 20 -44 20 -24 0 -51
3 -60 6 -9 3 -16 2 -16 -3z"/>
<path d="M3515 1280 c3 -5 8 -10 11 -10 2 0 4 5 4 10 0 6 -5 10 -11 10 -5 0
-7 -4 -4 -10z"/>
<path d="M2510 1230 c0 -5 5 -10 10 -10 6 0 10 5 10 10 0 6 -4 10 -10 10 -5 0
-10 -4 -10 -10z"/>
<path d="M2583 1223 c9 -2 23 -2 30 0 6 3 -1 5 -18 5 -16 0 -22 -2 -12 -5z"/>
<path d="M3095 1210 c3 -5 8 -10 11 -10 2 0 4 5 4 10 0 6 -5 10 -11 10 -5 0
-7 -4 -4 -10z"/>
<path d="M2875 1190 c-3 -5 -25 -7 -50 -3 -31 4 -45 2 -45 -6 0 -7 20 -11 53
-11 41 0 54 4 54 15 0 17 -3 19 -12 5z"/>
<path d="M2930 1180 c0 -11 2 -20 5 -20 2 0 9 9 15 20 9 16 8 20 -5 20 -8 0
-15 -9 -15 -20z"/>
<path d="M2985 1189 c-4 -5 10 -9 29 -9 20 0 36 4 36 8 0 12 -58 13 -65 1z"/>
<path d="M2470 1180 c0 -6 7 -10 15 -10 8 0 15 2 15 4 0 2 -7 6 -15 10 -8 3
-15 1 -15 -4z"/>
<path d="M2660 1183 c48 -8 56 -13 40 -23 -13 -8 -12 -10 3 -10 9 0 17 5 17
10 0 6 10 10 23 11 21 0 21 1 2 9 -11 5 -40 8 -65 8 -25 0 -34 -3 -20 -5z"/>
<path d="M3075 1180 c3 -5 8 -10 11 -10 2 0 4 5 4 10 0 6 -5 10 -11 10 -5 0
-7 -4 -4 -10z"/>
<path d="M3148 1173 c12 -2 32 -2 45 0 12 2 2 4 -23 4 -25 0 -35 -2 -22 -4z"/>
<path d="M3780 1160 c0 -6 7 -10 15 -10 8 0 15 2 15 4 0 2 -7 6 -15 10 -8 3
-15 1 -15 -4z"/>
<path d="M2770 1150 c0 -6 7 -10 15 -10 8 0 15 2 15 4 0 2 -7 6 -15 10 -8 3
-15 1 -15 -4z"/>
<path d="M3148 1153 c7 -3 16 -2 19 1 4 3 -2 6 -13 5 -11 0 -14 -3 -6 -6z"/>
<path d="M2818 1143 c6 -2 18 -2 25 0 6 3 1 5 -13 5 -14 0 -19 -2 -12 -5z"/>
<path d="M3077 1138 c-2 -7 8 -19 22 -25 24 -12 22 -12 -27 -10 -28 1 -52 -1
-52 -4 0 -6 111 -19 117 -15 8 7 -12 46 -23 46 -8 0 -14 5 -14 10 0 14 -18 12
-23 -2z"/>
<path d="M3590 1140 c0 -5 5 -10 10 -10 6 0 10 5 10 10 0 6 -4 10 -10 10 -5 0
-10 -4 -10 -10z"/>
<path d="M2643 1133 c9 -2 23 -2 30 0 6 3 -1 5 -18 5 -16 0 -22 -2 -12 -5z"/>
<path d="M3010 1130 c0 -5 10 -10 23 -10 18 0 19 2 7 10 -19 13 -30 13 -30 0z"/>
<path d="M3230 1136 c0 -2 14 -6 30 -8 17 -3 30 -1 30 4 0 4 -13 8 -30 8 -16
0 -30 -2 -30 -4z"/>
<path d="M3308 1129 c-7 -5 -8 -9 -3 -10 6 0 1 -4 -10 -9 -18 -8 -17 -9 8 -9
15 -1 27 3 27 8 0 5 10 11 23 13 20 3 20 4 -5 9 -15 3 -33 2 -40 -2z"/>
<path d="M3756 1125 c4 -8 10 -15 15 -15 5 0 9 7 9 15 0 8 -7 15 -15 15 -9 0
-12 -6 -9 -15z"/>
<path d="M2495 1119 c-15 -6 -9 -8 25 -9 25 -1 50 -3 55 -5 6 -1 21 -3 35 -4
23 -2 24 -3 5 -11 -19 -8 -19 -9 3 -9 12 -1 22 3 22 7 0 5 10 14 23 19 17 8 6
11 -56 12 -43 0 -81 2 -85 5 -4 2 -16 0 -27 -5z"/>
<path d="M3364 1095 c12 -9 40 -15 70 -14 l51 1 -60 13 c-77 18 -84 17 -61 0z"/>
<path d="M3766 1085 c-5 -14 -14 -16 -46 -11 -32 5 -40 3 -40 -9 0 -11 7 -13
30 -9 33 7 100 -3 100 -15 0 -4 -28 -5 -62 -3 -87 6 -64 -13 26 -22 61 -6 68
-5 62 9 -3 9 -6 23 -6 31 0 8 -7 14 -16 14 -9 0 -22 7 -29 16 -11 15 -12 15
-19 -1z"/>
<path d="M2830 1080 c0 -5 9 -10 20 -10 11 0 20 5 20 10 0 6 -9 10 -20 10 -11
0 -20 -4 -20 -10z"/>
<path d="M3220 1080 c0 -5 14 -10 30 -10 17 0 30 4 30 8 0 4 -13 9 -30 10 -16
1 -30 -2 -30 -8z"/>
<path d="M3570 1082 c0 -12 19 -26 26 -19 2 2 -2 10 -11 17 -9 8 -15 8 -15 2z"/>
<path d="M2545 1070 c-3 -5 -1 -10 4 -10 6 0 11 5 11 10 0 6 -2 10 -4 10 -3 0
-8 -4 -11 -10z"/>
<path d="M2995 1071 c-4 -8 125 -24 198 -24 19 0 27 -5 27 -19 0 -10 5 -18 11
-18 6 0 9 6 6 13 -2 6 8 17 22 24 23 10 19 12 -39 13 -81 2 -157 8 -192 14
-15 3 -30 1 -33 -3z"/>
<path d="M615 1050 c17 -4 44 -8 60 -8 25 0 24 2 -10 9 -51 10 -92 10 -50 -1z"/>
<path d="M2736 1044 c-3 -9 -6 -17 -6 -19 0 -2 20 -5 45 -7 31 -2 45 1 45 9 0
7 -11 13 -25 13 -14 0 -25 5 -25 10 0 16 -27 11 -34 -6z"/>
<path d="M2500 1040 c0 -5 14 -10 32 -10 36 0 35 4 -4 14 -17 4 -28 2 -28 -4z"/>
<path d="M2860 1040 c0 -5 5 -10 10 -10 6 0 10 5 10 10 0 6 -4 10 -10 10 -5 0
-10 -4 -10 -10z"/>
<path d="M2955 1040 c-24 -10 -22 -11 33 -14 42 -2 55 7 26 18 -20 8 -34 7
-59 -4z"/>
<path d="M728 1033 c6 -2 18 -2 25 0 6 3 1 5 -13 5 -14 0 -19 -2 -12 -5z"/>
<path d="M3408 1033 c7 -3 16 -2 19 1 4 3 -2 6 -13 5 -11 0 -14 -3 -6 -6z"/>
<path d="M798 1023 c7 -3 16 -2 19 1 4 3 -2 6 -13 5 -11 0 -14 -3 -6 -6z"/>
<path d="M3455 1020 c11 -5 31 -9 45 -9 23 0 23 1 5 9 -11 5 -31 9 -45 9 -23
0 -23 -1 -5 -9z"/>
<path d="M843 1013 c9 -2 23 -2 30 0 6 3 -1 5 -18 5 -16 0 -22 -2 -12 -5z"/>
<path d="M910 1003 c187 -34 280 -49 280 -44 0 7 -255 52 -285 50 -15 -1 -14
-3 5 -6z"/>
<path d="M2673 996 c4 -10 7 -20 7 -22 0 -2 7 -4 16 -4 8 0 12 5 9 11 -5 7 5
8 29 4 24 -5 36 -3 36 4 0 6 -15 11 -34 11 -19 0 -42 3 -52 7 -14 5 -16 3 -11
-11z"/>
<path d="M3268 1003 c7 -3 16 -2 19 1 4 3 -2 6 -13 5 -11 0 -14 -3 -6 -6z"/>
<path d="M3350 991 c0 -5 -3 -16 -6 -24 -4 -12 6 -16 50 -19 49 -3 56 -1 56
15 0 11 -5 17 -12 14 -7 -2 -28 2 -47 9 -40 17 -41 17 -41 5z"/>
<path d="M0 495 l1 -494 507 1 c279 1 517 5 530 9 14 5 22 5 22 -2 0 -12 488
-7 507 4 7 4 14 3 17 -2 3 -5 636 -9 1473 -9 1299 -1 1464 0 1434 13 -18 8
-47 15 -63 15 -26 0 -29 2 -18 15 13 16 35 21 26 6 -11 -17 48 -20 64 -4 13
14 12 15 -12 9 -17 -4 -28 -2 -28 4 0 5 -10 10 -22 10 -12 0 -19 3 -16 6 3 3
34 0 68 -7 52 -10 61 -15 57 -30 -7 -25 17 -31 106 -28 39 2 108 0 152 -4 44
-4 76 -5 70 -2 -5 3 -86 20 -180 39 -93 19 -312 64 -485 100 -173 35 -470 97
-660 136 -465 95 -524 108 -1375 285 -678 141 -1104 230 -1373 285 -57 12
-106 19 -110 16 -9 -9 -4 -11 118 -34 63 -13 118 -26 122 -30 9 -9 -148 19
-267 48 -44 10 -145 33 -225 50 -190 40 -272 58 -347 76 -34 7 -69 14 -78 14
-14 0 -15 -53 -15 -495z m1205 245 c-6 -10 -45 -1 -45 10 0 4 11 5 25 2 14 -2
23 -8 20 -12z m378 -77 c-13 -2 -33 -2 -45 0 -13 2 -3 4 22 4 25 0 35 -2 23
-4z m62 -13 c3 -5 -1 -10 -10 -10 -9 0 -13 5 -10 10 3 6 8 10 10 10 2 0 7 -4
10 -10z m114 -26 c11 -10 5 -10 -34 2 -62 18 -72 28 -20 19 22 -4 46 -13 54
-21z m165 -26 c89 -17 105 -23 85 -30 -15 -6 -25 -5 -27 1 -2 7 -15 8 -29 5
-18 -5 -24 -3 -19 5 5 8 -10 11 -51 11 -35 1 -66 6 -77 15 -27 20 -13 19 118
-7z m180 -37 c15 -6 16 -10 7 -16 -8 -4 -16 -2 -21 5 -4 7 -16 9 -29 5 -12 -4
-21 -2 -21 4 0 12 35 13 64 2z m113 -27 c-3 -3 -12 -4 -19 -1 -8 3 -5 6 6 6
11 1 17 -2 13 -5z m50 -10 c-3 -3 -12 -4 -19 -1 -8 3 -5 6 6 6 11 1 17 -2 13
-5z m172 -45 c-20 -13 -36 -11 -42 4 -4 10 3 12 25 9 21 -3 26 -7 17 -13z m36
-9 c-3 -5 -14 -10 -23 -10 -15 0 -15 2 -2 10 20 13 33 13 25 0z m189 -41 c-9
-15 -34 -10 -28 5 3 8 12 12 20 9 8 -3 11 -9 8 -14z m104 -23 c-7 -7 -19 -11
-26 -8 -11 4 -11 6 0 13 7 5 19 9 26 9 10 0 10 -3 0 -14z m57 -10 c29 -15 59
-11 48 7 -3 6 -1 7 5 3 18 -11 14 -23 -8 -29 -27 -7 -92 11 -85 24 8 12 8 12
40 -5z m204 -32 c3 -4 -2 -4 -12 -1 -10 4 -26 2 -36 -5 -13 -8 -25 -8 -47 1
l-29 11 35 -6 c26 -4 31 -3 20 5 -8 6 -23 11 -33 11 -10 0 -16 4 -13 9 6 8
104 -13 115 -25z m78 -10 c-3 -3 -12 -4 -19 -1 -8 3 -5 6 6 6 11 1 17 -2 13
-5z m-47 -14 c20 -6 21 -8 5 -8 -11 0 -33 4 -50 8 -27 7 -27 8 -5 8 14 0 36
-4 50 -8z m173 -19 c6 -6 -7 -6 -34 0 -24 6 -46 13 -49 16 -9 10 73 -6 83 -16z
m-74 -3 c28 -6 51 -15 51 -18 0 -6 -86 12 -115 24 -21 9 15 6 64 -6z m111 -28
c0 -5 -2 -10 -4 -10 -3 0 -8 5 -11 10 -3 6 -1 10 4 10 6 0 11 -4 11 -10z m97
4 c-3 -3 -12 -4 -19 -1 -8 3 -5 6 6 6 11 1 17 -2 13 -5z m80 -10 c-3 -3 -12
-4 -19 -1 -8 3 -5 6 6 6 11 1 17 -2 13 -5z m10 -40 c-3 -3 -12 -4 -19 -1 -8 3
-5 6 6 6 11 1 17 -2 13 -5z m156 -1 c-7 -2 -19 -2 -25 0 -7 3 -2 5 12 5 14 0
19 -2 13 -5z m44 -9 c-3 -3 -12 -4 -19 -1 -8 3 -5 6 6 6 11 1 17 -2 13 -5z
m88 -15 c5 -5 27 -9 50 -10 39 -1 40 -1 13 -13 l-27 -12 39 -12 c51 -15 57
-15 57 3 0 17 -13 20 -22 5 -3 -5 -13 -6 -21 -3 -15 5 -15 7 -1 15 21 11 99
-1 90 -15 -3 -6 -1 -7 5 -3 10 6 460 -79 471 -89 11 -11 -8 -14 -38 -5 -18 5
-40 6 -49 4 -15 -5 -15 -4 -2 5 13 9 13 11 0 10 -8 -1 -26 -4 -40 -8 -22 -6
-19 -8 23 -15 26 -4 47 -12 47 -18 0 -6 -11 -8 -27 -3 -16 4 -68 15 -117 25
-48 10 -91 21 -94 24 -9 9 19 7 79 -7 43 -11 58 -11 66 -1 9 9 6 13 -15 17
-15 3 -39 3 -54 0 -18 -3 -33 0 -43 11 -18 18 -50 22 -39 5 3 -6 -8 -4 -24 5
-35 18 -82 21 -82 6 0 -5 12 -10 28 -11 15 0 36 -4 47 -9 18 -8 18 -9 2 -9
-31 -1 -269 52 -312 69 l-20 9 20 1 c18 1 17 2 -5 15 -14 8 -35 14 -47 15 -13
0 -23 5 -23 10 0 12 49 3 65 -11z m-158 5 c-3 -3 -12 -4 -19 -1 -8 3 -5 6 6 6
11 1 17 -2 13 -5z m98 -15 c4 -6 13 -8 21 -5 7 3 16 1 19 -4 7 -12 -6 -12 -71
-3 -42 6 -45 8 -24 14 37 10 48 10 55 -2z m-3380 -9 c18 -8 17 -9 -7 -9 -16
-1 -28 4 -28 9 0 12 8 12 35 0z m740 -10 c-3 -5 -12 -10 -18 -10 -7 0 -6 4 3
10 19 12 23 12 15 0z m345 0 c0 -5 -9 -10 -20 -10 -11 0 -20 5 -20 10 0 6 9
10 20 10 11 0 20 -4 20 -10z m737 -16 c-3 -3 -12 -4 -19 -1 -8 3 -5 6 6 6 11
1 17 -2 13 -5z m-1964 -11 c-7 -2 -21 -2 -30 0 -10 3 -4 5 12 5 17 0 24 -2 18
-5z m1116 -19 c2 -2 -10 -4 -27 -4 -17 0 -34 4 -37 10 -5 9 53 3 64 -6z m3111
-94 c-8 -5 -22 -9 -30 -9 -10 0 -8 3 5 9 27 12 43 12 25 0z m255 -15 l50 -14
-42 2 c-24 1 -43 5 -43 9 0 4 -12 9 -27 11 -16 2 -20 4 -8 5 11 1 43 -5 70
-13z"/>
<path d="M3955 150 c-3 -5 -1 -10 4 -10 6 0 11 5 11 10 0 6 -2 10 -4 10 -3 0
-8 -4 -11 -10z"/>
<path d="M3060 977 c0 -17 66 -22 76 -6 3 5 -3 9 -13 9 -10 0 -28 3 -40 6 -17
5 -23 2 -23 -9z"/>
<path d="M2590 967 c0 -10 8 -17 18 -17 9 0 13 4 7 8 -5 4 -13 11 -17 16 -5 5
-8 2 -8 -7z"/>
<path d="M3483 969 c11 -7 23 -7 35 0 14 9 11 10 -18 10 -29 0 -32 -1 -17 -10z"/>
<path d="M3605 971 c-25 -6 -27 -8 -10 -13 33 -10 125 -7 119 4 -3 5 -12 7
-20 4 -7 -3 -16 -1 -19 4 -7 11 -25 11 -70 1z"/>
<path d="M2980 955 c0 -9 6 -12 15 -9 8 4 15 10 15 15 0 5 -7 9 -15 9 -8 0
-15 -7 -15 -15z"/>
<path d="M3748 953 c7 -3 16 -2 19 1 4 3 -2 6 -13 5 -11 0 -14 -3 -6 -6z"/>
<path d="M2540 940 c-22 -6 -23 -8 -7 -15 11 -4 23 -3 30 4 15 15 7 19 -23 11z"/>
<path d="M2630 940 c0 -5 5 -10 10 -10 6 0 10 5 10 10 0 6 -4 10 -10 10 -5 0
-10 -4 -10 -10z"/>
<path d="M3267 936 c-9 -24 14 -46 46 -45 27 0 29 2 12 9 -23 10 -14 13 35 10
50 -3 28 13 -35 25 -39 8 -56 8 -58 1z"/>
<path d="M2930 929 c0 -8 -14 -10 -45 -6 -27 4 -45 3 -45 -3 0 -6 5 -10 12
-10 6 0 9 -2 6 -5 -8 -9 -38 6 -32 16 3 5 -2 9 -10 9 -24 0 -19 -27 7 -34 43
-11 97 -7 103 9 4 8 13 15 21 15 8 0 11 5 8 10 -8 14 -25 13 -25 -1z"/>
<path d="M3000 932 c0 -7 -7 -12 -15 -12 -8 0 -15 -4 -15 -10 0 -13 37 -13 46
1 3 6 1 16 -5 22 -8 8 -11 8 -11 -1z"/>
<path d="M3160 930 c0 -5 5 -10 11 -10 5 0 7 5 4 10 -3 6 -8 10 -11 10 -2 0
-4 -4 -4 -10z"/>
<path d="M3098 923 c7 -3 16 -2 19 1 4 3 -2 6 -13 5 -11 0 -14 -3 -6 -6z"/>
<path d="M3618 913 c6 -2 18 -2 25 0 6 3 1 5 -13 5 -14 0 -19 -2 -12 -5z"/>
<path d="M3744 905 c-3 -8 2 -22 12 -32 17 -17 17 -17 11 0 -7 19 -4 20 31 10
18 -4 20 -8 10 -14 -9 -6 -8 -9 7 -9 14 0 21 6 21 20 0 15 -7 20 -28 20 -15 0
-30 5 -33 10 -9 15 -25 12 -31 -5z"/>
<path d="M2638 903 c7 -3 16 -2 19 1 4 3 -2 6 -13 5 -11 0 -14 -3 -6 -6z"/>
<path d="M3170 890 c0 -11 5 -20 11 -20 5 0 7 5 3 12 -5 8 -2 9 11 4 15 -5 16
-4 5 9 -17 21 -30 19 -30 -5z"/>
<path d="M3580 889 c0 -5 5 -7 10 -4 6 3 10 8 10 11 0 2 -4 4 -10 4 -5 0 -10
-5 -10 -11z"/>
<path d="M3646 888 c-17 -53 -15 -66 6 -71 13 -4 26 -1 30 6 6 11 1 51 -9 70
-7 11 -23 8 -27 -5z m24 -32 c0 -8 -4 -18 -10 -21 -5 -3 -10 3 -10 14 0 12 5
21 10 21 6 0 10 -6 10 -14z"/>
<path d="M3064 868 c-3 -5 3 -8 13 -8 11 0 24 -5 31 -12 8 -8 15 -8 27 2 8 7
15 15 15 19 0 9 -81 8 -86 -1z"/>
<path d="M2523 863 c9 -2 25 -2 35 0 9 3 1 5 -18 5 -19 0 -27 -2 -17 -5z"/>
<path d="M2688 863 c6 -2 18 -2 25 0 6 3 1 5 -13 5 -14 0 -19 -2 -12 -5z"/>
<path d="M3213 863 c9 -2 23 -2 30 0 6 3 -1 5 -18 5 -16 0 -22 -2 -12 -5z"/>
<path d="M3580 849 c0 -8 -16 -10 -50 -5 -43 6 -49 5 -43 -10 5 -13 2 -15 -15
-9 -12 3 -22 2 -22 -3 0 -11 48 -22 100 -22 30 0 37 4 36 17 0 12 7 19 22 21
12 2 20 8 17 13 -9 13 -45 11 -45 -2z"/>
<path d="M3430 828 c0 -19 2 -20 10 -8 13 19 13 30 0 30 -5 0 -10 -10 -10 -22z"/>
<path d="M3785 840 c-3 -5 3 -10 14 -10 12 0 21 5 21 10 0 6 -6 10 -14 10 -8
0 -18 -4 -21 -10z"/>
<path d="M3210 829 c0 -5 11 -9 25 -9 14 0 25 2 25 4 0 2 -11 6 -25 8 -14 3
-25 1 -25 -3z"/>
<path d="M2481 794 c0 -11 3 -14 6 -6 3 7 2 16 -1 19 -3 4 -6 -2 -5 -13z"/>
<path d="M2688 793 c7 -3 16 -2 19 1 4 3 -2 6 -13 5 -11 0 -14 -3 -6 -6z"/>
<path d="M3216 791 c5 -5 33 -11 63 -14 30 -4 50 -3 45 2 -5 5 -33 11 -63 14
-30 4 -50 3 -45 -2z"/>
<path d="M3660 790 c20 -13 33 -13 25 0 -3 6 -14 10 -23 10 -15 0 -15 -2 -2
-10z"/>
<path d="M2628 783 c7 -3 16 -2 19 1 4 3 -2 6 -13 5 -11 0 -14 -3 -6 -6z"/>
<path d="M2725 780 c4 -6 11 -8 16 -5 14 9 11 15 -7 15 -8 0 -12 -5 -9 -10z"/>
<path d="M2766 781 c-4 -6 -2 -11 3 -11 6 0 11 -4 11 -9 0 -5 -10 -7 -22 -4
-20 4 -21 3 -6 -7 14 -8 15 -16 8 -35 -11 -29 -12 -27 18 -30 13 -1 26 4 29
11 3 8 11 14 19 14 8 0 14 5 14 11 0 6 7 8 16 5 8 -3 12 -2 9 4 -9 14 -55 12
-55 -2 0 -19 -14 1 -17 25 -4 27 -19 42 -27 28z"/>
<path d="M3060 787 c10 -9 90 -17 90 -9 0 5 -21 9 -47 11 -26 1 -45 0 -43 -2z"/>
<path d="M3740 779 c0 -6 6 -9 13 -6 7 3 24 -3 37 -13 28 -21 60 -15 60 11 0
11 -4 19 -10 19 -5 0 -10 -4 -10 -10 0 -6 -9 -6 -26 0 -34 13 -64 13 -64 -1z"/>
<path d="M2975 745 c0 -27 -3 -30 -37 -33 -26 -2 -38 -8 -38 -18 0 -11 8 -14
28 -12 15 2 32 -3 37 -9 6 -7 32 -16 59 -20 41 -5 48 -4 40 8 -4 8 -9 30 -11
49 -4 52 -8 57 -45 62 -31 3 -33 2 -33 -27z m62 -15 c-1 -13 -6 -19 -15 -15
-7 3 -16 5 -18 5 -2 0 -4 7 -4 15 0 8 9 15 19 15 14 0 19 -6 18 -20z m-32 -48
c-3 -3 -11 0 -18 7 -9 10 -8 11 6 5 10 -3 15 -9 12 -12z"/>
<path d="M3498 763 c7 -3 16 -2 19 1 4 3 -2 6 -13 5 -11 0 -14 -3 -6 -6z"/>
<path d="M3285 750 c11 -5 27 -9 35 -9 13 -1 13 0 0 9 -8 5 -24 9 -35 9 l-20
0 20 -9z"/>
<path d="M3466 746 c3 -9 11 -16 16 -16 13 0 5 23 -10 28 -7 2 -10 -2 -6 -12z"/>
<path d="M3510 729 c0 -4 16 -9 35 -11 19 -2 35 -1 35 3 0 4 -16 9 -35 11 -19
2 -35 1 -35 -3z"/>
<path d="M3228 713 c-10 -2 -18 -9 -18 -14 0 -14 26 -11 40 6 13 15 9 16 -22
8z"/>
<path d="M3655 710 c-3 -5 1 -10 10 -10 9 0 13 5 10 10 -3 6 -8 10 -10 10 -2
0 -7 -4 -10 -10z"/>
<path d="M3288 703 c7 -3 16 -2 19 1 4 3 -2 6 -13 5 -11 0 -14 -3 -6 -6z"/>
<path d="M3337 684 c3 -11 14 -26 22 -34 9 -8 15 -25 13 -37 -2 -17 2 -23 15
-23 10 0 29 -3 43 -7 14 -3 22 -3 18 1 -12 14 30 45 54 40 21 -4 21 -4 3 5
-27 13 -78 14 -70 1 3 -5 1 -10 -4 -10 -6 0 -11 9 -11 20 0 15 -7 20 -29 20
-17 0 -32 4 -36 9 -3 6 9 7 30 4 23 -4 35 -2 35 6 0 6 -10 11 -22 11 -13 0
-33 3 -46 6 -19 5 -21 3 -15 -12z"/>
<path d="M3274 653 c11 -11 48 -14 41 -3 -3 5 -16 10 -27 10 -12 0 -18 -3 -14
-7z"/>
<path d="M3093 643 c9 -2 25 -2 35 0 9 3 1 5 -18 5 -19 0 -27 -2 -17 -5z"/>
<path d="M3195 630 c-3 -5 -1 -10 4 -10 6 0 11 5 11 10 0 6 -2 10 -4 10 -3 0
-8 -4 -11 -10z"/>
<path d="M3818 583 c6 -2 18 -2 25 0 6 3 1 5 -13 5 -14 0 -19 -2 -12 -5z"/>
<path d="M3920 370 c-9 -6 -10 -10 -3 -10 6 0 15 5 18 10 8 12 4 12 -15 0z"/>
<path d="M3928 333 c7 -3 16 -2 19 1 4 3 -2 6 -13 5 -11 0 -14 -3 -6 -6z"/>
<path d="M3988 323 c6 -2 18 -2 25 0 6 3 1 5 -13 5 -14 0 -19 -2 -12 -5z"/>
<path d="M4507 43 c-12 -11 -8 -23 9 -23 8 0 13 4 10 9 -4 5 0 12 6 14 9 4 8
6 -3 6 -9 1 -19 -2 -22 -6z"/>
</g>
</svg>
