<?xml version="1.0" standalone="no"?>
<!DOCTYPE svg PUBLIC "-//W3C//DTD SVG 20010904//EN"
 "http://www.w3.org/TR/2001/REC-SVG-20010904/DTD/svg10.dtd">
<svg version="1.0" xmlns="http://www.w3.org/2000/svg"
 width="422.000000pt" height="500.000000pt" viewBox="0 0 422.000000 500.000000"
 preserveAspectRatio="xMidYMid meet">

<g transform="translate(0.000000,500.000000) scale(0.100000,-0.100000)"
fill="#000000" stroke="none">
<path d="M3866 4658 c-3 -29 -5 -88 -5 -131 1 -73 3 -78 25 -83 19 -5 26 -15
30 -46 12 -74 25 -22 26 103 1 217 3 205 -36 207 -34 2 -34 2 -40 -50z"/>
<path d="M3483 4363 c9 -2 23 -2 30 0 6 3 -1 5 -18 5 -16 0 -22 -2 -12 -5z"/>
<path d="M3373 4353 c15 -2 39 -2 55 0 15 2 2 4 -28 4 -30 0 -43 -2 -27 -4z"/>
<path d="M3268 4343 c12 -2 32 -2 45 0 12 2 2 4 -23 4 -25 0 -35 -2 -22 -4z"/>
<path d="M3163 4333 c15 -2 37 -2 50 0 12 2 0 4 -28 4 -27 0 -38 -2 -22 -4z"/>
<path d="M3043 4323 c15 -2 39 -2 55 0 15 2 2 4 -28 4 -30 0 -43 -2 -27 -4z"/>
<path d="M2928 4313 c18 -2 45 -2 60 0 15 2 0 4 -33 4 -33 0 -45 -2 -27 -4z"/>
<path d="M2813 4303 c15 -2 39 -2 55 0 15 2 2 4 -28 4 -30 0 -43 -2 -27 -4z"/>
<path d="M2693 4293 c15 -2 39 -2 55 0 15 2 2 4 -28 4 -30 0 -43 -2 -27 -4z"/>
<path d="M2410 4274 c-74 -7 -227 -20 -340 -28 -113 -9 -222 -19 -242 -22
l-38 -6 6 -146 c3 -81 16 -691 29 -1357 35 -1738 35 -1724 54 -1729 9 -3 90
-23 181 -44 191 -46 660 -159 1102 -267 316 -77 338 -81 338 -66 0 5 -10 9
-22 9 -13 0 -117 23 -233 51 -213 52 -394 96 -990 241 -181 44 -338 84 -349
88 -21 9 -20 -30 -36 912 -16 924 -39 1978 -46 2141 -5 118 -4 148 7 155 8 4
198 25 424 45 225 20 383 37 350 37 -33 -1 -121 -7 -195 -14z"/>
<path d="M356 4173 c20 -230 23 -243 20 -95 -2 78 1 142 5 142 5 0 9 5 9 10 0
6 -9 10 -20 10 -19 0 -20 -5 -14 -67z"/>
<path d="M1328 4173 c6 -2 18 -2 25 0 6 3 1 5 -13 5 -14 0 -19 -2 -12 -5z"/>
<path d="M1068 4153 c6 -2 18 -2 25 0 6 3 1 5 -13 5 -14 0 -19 -2 -12 -5z"/>
<path d="M908 4143 c6 -2 18 -2 25 0 6 3 1 5 -13 5 -14 0 -19 -2 -12 -5z"/>
<path d="M793 4133 c9 -2 25 -2 35 0 9 3 1 5 -18 5 -19 0 -27 -2 -17 -5z"/>
<path d="M653 4123 c9 -2 25 -2 35 0 9 3 1 5 -18 5 -19 0 -27 -2 -17 -5z"/>
<path d="M474 4068 c3 -29 8 -109 11 -178 38 -890 76 -1721 100 -2200 8 -163
15 -301 15 -307 0 -12 78 -39 87 -30 2 3 -9 8 -26 12 -17 4 -34 11 -37 17 -7
10 -15 165 -44 843 -5 138 -15 347 -20 465 -50 1104 -60 1414 -48 1422 9 5 3
8 -15 8 -28 0 -28 0 -23 -52z"/>
<path d="M422 2745 c0 -66 4 -133 8 -150 4 -16 8 -22 9 -12 1 13 10 17 36 17
l36 0 -3 113 -3 112 -37 3 c-24 2 -38 9 -41 20 -3 9 -5 -37 -5 -103z"/>
<path d="M3543 2593 l-33 -4 0 -128 c0 -71 3 -143 6 -160 6 -30 8 -31 65 -31
32 0 60 3 62 8 9 15 -16 307 -27 314 -11 8 -16 8 -73 1z"/>
<path d="M3882 1510 c0 -19 2 -27 5 -17 2 9 2 25 0 35 -3 9 -5 1 -5 -18z"/>
<path d="M3876 1283 c-4 -87 -9 -223 -12 -303 -3 -80 -10 -149 -15 -154 -12
-13 -11 -39 1 -31 13 8 13 -26 -1 -45 -8 -12 -9 -10 -4 8 4 13 2 22 -4 22 -7
0 -11 -41 -11 -117 0 -85 -5 -131 -16 -164 -10 -26 -14 -54 -11 -63 6 -15 10
-14 34 9 24 22 29 23 32 9 2 -10 -12 -32 -33 -51 -31 -29 -36 -41 -36 -79 0
-24 3 -44 7 -44 4 0 20 12 36 27 l29 28 -4 -33 c-3 -17 -1 -32 4 -32 4 0 8 9
8 20 0 11 5 20 11 20 8 0 8 4 -1 14 -9 12 -10 143 -4 565 4 303 5 551 2 551
-3 0 -8 -71 -12 -157z"/>
<path d="M735 1336 c22 -7 56 -16 75 -19 33 -6 33 -6 -5 7 -22 7 -56 16 -75
19 -33 6 -33 6 5 -7z"/>
<path d="M858 1303 c7 -3 16 -2 19 1 4 3 -2 6 -13 5 -11 0 -14 -3 -6 -6z"/>
<path d="M898 1293 c7 -3 16 -2 19 1 4 3 -2 6 -13 5 -11 0 -14 -3 -6 -6z"/>
<path d="M931 1286 c2 -2 146 -40 319 -85 173 -44 357 -91 408 -105 50 -13 92
-21 92 -16 0 4 -46 20 -102 33 -57 14 -238 60 -403 101 -289 73 -323 81 -314
72z"/>
<path d="M3839 433 c-13 -16 -12 -17 4 -4 16 13 21 21 13 21 -2 0 -10 -8 -17
-17z"/>
</g>
</svg>
