<?xml version="1.0" standalone="no"?>
<!DOCTYPE svg PUBLIC "-//W3C//DTD SVG 20010904//EN"
 "http://www.w3.org/TR/2001/REC-SVG-20010904/DTD/svg10.dtd">
<svg version="1.0" xmlns="http://www.w3.org/2000/svg"
 width="1200.000000pt" height="1200.000000pt" viewBox="0 0 1200.000000 1200.000000"
 preserveAspectRatio="xMidYMid meet">

<g transform="translate(0.000000,1200.000000) scale(0.100000,-0.100000)"
fill="#000000" stroke="none">
<path d="M3200 11438 c0 -7 -1 -1069 -2 -2361 -2 -1291 0 -2347 5 -2347 4 0 7
-38 7 -85 l0 -85 -69 0 c-55 0 -70 -3 -75 -17 -4 -9 -10 -135 -13 -279 -7
-316 -8 -314 86 -314 32 0 71 5 87 10 28 10 29 12 26 65 l-4 55 61 0 61 0 0
-70 c0 -67 1 -70 30 -85 l30 -16 0 -314 c0 -235 3 -316 12 -321 20 -12 235 -8
267 6 16 6 33 19 37 28 5 10 10 216 12 460 l3 442 -27 48 c-23 40 -28 61 -31
142 -6 145 0 140 -162 140 -75 0 -143 -5 -151 -10 -12 -7 -16 -36 -18 -126
l-4 -116 -29 6 c-15 3 -37 14 -48 25 -26 26 -30 98 -39 731 -7 488 -8 4212 -1
4280 2 19 12 44 22 54 21 25 22 52 1 60 -28 11 -74 7 -74 -6z"/>
<path d="M8605 11170 c-6 -10 2 -1000 10 -1149 3 -56 -1 -85 -16 -124 -20 -49
-20 -70 -17 -562 3 -461 5 -513 20 -542 17 -29 18 -187 18 -2657 0 -2325 -2
-2634 -16 -2698 -27 -131 -26 -966 2 -1118 6 -33 4 -1623 -2 -1673 -6 -50 10
-77 44 -77 58 0 55 -54 50 841 -3 453 -2 852 2 887 9 73 25 94 80 111 22 6 49
21 60 33 19 21 20 35 20 448 0 277 -4 438 -11 458 -8 23 -26 39 -79 66 l-68
36 -7 53 c-4 28 -8 394 -10 812 -14 3204 -20 4159 -30 4295 -5 69 14 181 40
231 11 21 25 30 53 34 20 3 48 11 62 18 l25 13 0 451 c0 515 7 474 -92 519
-94 41 -89 3 -92 641 -2 307 -6 580 -10 607 -6 48 -22 69 -36 46z"/>
<path d="M6058 10662 c-19 -22 13 -45 45 -33 24 9 387 15 1402 22 l330 2 -235
9 c-129 5 -527 10 -883 11 -522 2 -651 -1 -659 -11z"/>
<path d="M3951 10413 c1 -160 4 -234 10 -208 4 22 8 122 8 223 1 151 4 187 17
207 16 24 16 25 -10 25 l-26 0 1 -247z"/>
<path d="M4248 10653 c7 -3 16 -2 19 1 4 3 -2 6 -13 5 -11 0 -14 -3 -6 -6z"/>
<path d="M4358 10653 c7 -3 16 -2 19 1 4 3 -2 6 -13 5 -11 0 -14 -3 -6 -6z"/>
<path d="M4732 10653 c192 -2 504 -2 695 0 192 1 35 2 -347 2 -382 0 -539 -1
-348 -2z"/>
<path d="M7938 10653 c6 -2 18 -2 25 0 6 3 1 5 -13 5 -14 0 -19 -2 -12 -5z"/>
<path d="M3950 9653 c0 -278 3 -504 6 -501 9 10 12 1008 3 1008 -5 0 -9 -228
-9 -507z"/>
<path d="M3950 8722 c0 -220 3 -403 8 -405 8 -6 5 793 -3 801 -3 3 -5 -175 -5
-396z"/>
<path d="M3954 8190 c0 -63 1 -89 3 -57 2 31 2 83 0 115 -2 31 -3 5 -3 -58z"/>
<path d="M3951 7974 c0 -11 3 -14 6 -6 3 7 2 16 -1 19 -3 4 -6 -2 -5 -13z"/>
<path d="M3952 7915 c0 -16 2 -22 5 -12 2 9 2 23 0 30 -3 6 -5 -1 -5 -18z"/>
<path d="M3950 7829 c0 -5 5 -7 10 -4 6 3 10 8 10 11 0 2 -4 4 -10 4 -5 0 -10
-5 -10 -11z"/>
<path d="M6158 7453 c-73 -3 -89 -7 -98 -22 -5 -10 -6 -21 -3 -25 10 -10 43
-7 43 4 0 7 210 10 609 10 335 0 624 3 642 8 47 10 -211 18 -680 20 -211 2
-394 4 -405 5 -12 2 -60 2 -108 0z"/>
<path d="M3865 7440 c3 -5 8 -10 11 -10 2 0 4 5 4 10 0 6 -5 10 -11 10 -5 0
-7 -4 -4 -10z"/>
<path d="M4043 7441 c-45 -4 -66 -11 -77 -26 -18 -24 -20 -57 -5 -72 7 -7 8
-19 4 -30 -5 -10 -7 -22 -6 -27 1 -4 3 -121 5 -260 7 -436 20 -439 26 -6 l5
385 30 6 c17 4 437 7 934 8 664 1 902 4 894 12 -12 12 -1698 22 -1810 10z"/>
<path d="M3871 7374 c0 -11 3 -14 6 -6 3 7 2 16 -1 19 -3 4 -6 -2 -5 -13z"/>
<path d="M3866 7312 c-4 -13 -5 -26 -2 -29 10 -11 18 4 14 29 l-4 23 -8 -23z"/>
<path d="M3868 7108 c-3 -7 -5 -89 -6 -181 -1 -92 -4 -172 -7 -178 -4 -5 1 -9
9 -9 14 0 16 25 16 190 0 105 -2 190 -4 190 -2 0 -6 -6 -8 -12z"/>
<path d="M3978 6610 c-4 -14 -8 -74 -9 -135 0 -60 -4 -148 -8 -195 -5 -53 -4
-102 3 -130 6 -25 8 -72 5 -105 -3 -33 -2 -71 3 -84 4 -12 5 -44 2 -70 -9 -60
-9 -409 -1 -418 4 -3 9 -4 12 -1 3 3 4 265 3 584 -2 318 -6 568 -10 554z"/>
<path d="M3228 5953 c-15 -4 -18 -15 -18 -61 0 -31 -2 -442 -6 -912 -3 -470
-6 -873 -6 -895 0 -22 0 -836 1 -1810 0 -974 -2 -1780 -5 -1793 -4 -12 -1 -36
6 -52 18 -43 63 -42 85 0 9 17 14 39 11 48 -19 60 -23 338 -32 1912 -3 635 -7
1284 -9 1443 -1 183 1 287 8 287 6 0 7 39 3 108 -4 59 -7 473 -8 920 0 446 -4
811 -7 811 -3 -1 -14 -3 -23 -6z"/>
<path d="M3977 5415 c-5 -27 -9 -59 -9 -70 0 -78 3 -585 5 -695 0 -74 1 -165
0 -202 -1 -46 2 -68 10 -68 9 0 11 110 9 442 -1 244 -3 488 -5 543 -2 91 -3
95 -10 50z"/>
<path d="M3876 5117 c3 -10 9 -15 12 -12 3 3 0 11 -7 18 -10 9 -11 8 -5 -6z"/>
<path d="M3870 5070 c0 -5 5 -10 10 -10 6 0 10 5 10 10 0 6 -4 10 -10 10 -5 0
-10 -4 -10 -10z"/>
<path d="M3877 5023 c-11 -10 -8 -53 3 -53 6 0 10 14 10 30 0 31 -2 35 -13 23z"/>
<path d="M3871 4635 c-1 -91 -4 -171 -7 -178 -2 -7 2 -21 10 -32 12 -16 14 6
15 178 1 113 -2 197 -8 197 -5 0 -9 -73 -10 -165z"/>
<path d="M3870 4335 c-10 -23 -12 -143 -10 -540 1 -280 3 -971 4 -1535 1 -618
5 -1035 11 -1050 9 -24 10 -23 15 15 4 22 4 682 2 1468 -4 1160 -2 1427 8
1427 10 0 12 20 7 93 -4 50 -11 106 -16 122 l-8 30 -13 -30z"/>
<path d="M6182 4211 c-15 -9 747 -21 1376 -20 232 0 422 4 422 8 0 5 -7 12
-16 15 -24 9 -1767 7 -1782 -3z"/>
<path d="M4183 4203 c9 -2 23 -2 30 0 6 3 -1 5 -18 5 -16 0 -22 -2 -12 -5z"/>
<path d="M4823 4203 c26 -2 68 -2 95 0 26 2 4 3 -48 3 -52 0 -74 -1 -47 -3z"/>
<path d="M5153 4203 c97 -2 257 -2 355 0 97 1 17 2 -178 2 -195 0 -275 -1
-177 -2z"/>
<path d="M5718 4203 c12 -2 32 -2 45 0 12 2 2 4 -23 4 -25 0 -35 -2 -22 -4z"/>
<path d="M6077 4203 c-12 -12 -7 -43 6 -43 18 0 49 34 40 43 -8 9 -38 9 -46 0z"/>
<path d="M3970 4175 c-10 -11 -11 -51 -6 -163 4 -81 7 -635 7 -1232 1 -1381 0
-1570 -12 -1592 -7 -13 -5 -20 8 -27 25 -13 1883 -14 1903 -1 13 9 13 10 0 10
-8 0 -422 1 -920 3 -690 3 -911 7 -928 16 -20 11 -22 17 -15 44 7 29 8 1005 3
2402 -1 275 1 512 5 528 6 23 4 27 -13 27 -11 0 -25 -7 -32 -15z"/>
<path d="M3870 1170 c0 -5 5 -10 11 -10 5 0 7 5 4 10 -3 6 -8 10 -11 10 -2 0
-4 -4 -4 -10z"/>
<path d="M6090 1172 c0 -6 5 -14 10 -17 13 -8 450 -5 705 4 l190 8 -220 1
c-121 1 -325 5 -452 9 -167 4 -233 3 -233 -5z"/>
<path d="M3876 1122 c-4 -13 -5 -26 -2 -29 10 -11 18 4 14 29 l-4 23 -8 -23z"/>
<path d="M8990 305 c-14 -16 -65 -21 -74 -6 -8 13 -44 2 -50 -16 -4 -10 -17
-14 -40 -12 -19 2 -39 0 -43 -5 -4 -4 -23 -14 -42 -22 -31 -13 -35 -13 -48 6
-17 24 -42 26 -58 4 -10 -14 -38 -16 -221 -15 -381 4 -426 3 -884 -3 -250 -4
-491 -8 -535 -9 -44 -1 -107 -1 -140 1 -33 1 -148 -2 -255 -7 -256 -12 -543
-12 -1300 -3 -607 7 -929 3 -980 -12 -26 -7 -69 -8 -315 -7 -284 1 -320 2
-325 12 -4 5 -45 7 -96 5 -67 -3 -97 -1 -122 11 -30 14 -36 14 -66 -2 -25 -14
-44 -16 -79 -11 -26 4 -49 11 -52 16 -4 6 -17 2 -32 -7 -31 -20 -103 -23 -122
-5 -12 12 -16 11 -23 -2 -10 -18 -39 -21 -54 -6 -7 7 -16 4 -29 -10 l-18 -20
3022 0 3022 0 -3 67 c-3 68 -15 86 -38 58z"/>
</g>
</svg>
